<svg fill="none" height="31" viewBox="0 0 191 31" width="191" xmlns="http://www.w3.org/2000/svg"><g fill="#fff"><path d="m43 25v-21.00001h5.55v7.80001h8.1v-7.80001h5.55v21.00001h-5.55v-8.1h-8.1v8.1z"/><path d="m65.4859 5.19999c0-.72.27-1.32.81-1.8.54-.5 1.22-.75 2.04-.75s1.5.25 2.04.75c.54.48.81 1.08.81 1.8 0 .70001-.27 1.30001-.81 1.8-.54.5-1.22.75-2.04.75s-1.5-.25-2.04-.75c-.54-.49999-.81-1.09999-.81-1.8zm.3 19.80001v-15.60001h5.1v15.60001z"/><path d="m75.4541 22.63c-1.34-1.48-2.01-3.39-2.01-5.73s.67-4.25 2.01-5.73c1.34-1.48001 2.97-2.22001 4.89-2.22001 1.38 0 2.57.4 3.57 1.20001.46.36.82.76 1.08 1.2h.3v-1.95001h5.1v21.30001h-14.85v-4.05h9.75v-4.05h-.3c-.28.44-.64.82-1.08 1.14-.98.74-2.17 1.11-3.57 1.11-1.92 0-3.55-.74-4.89-2.22zm4.14-8.37c-.6.64-.9 1.52-.9 2.64s.3 2 .9 2.64 1.4.96 2.4.96 1.8-.32 2.4-.96.9-1.52.9-2.64-.3-2-.9-2.64-1.4-.96-2.4-.96-1.8.32-2.4.96z"/><path d="m93.3801 25v-21.00001h5.1v7.50001h.3c.28-.48.64-.9 1.08-1.26 1.0199-.86 2.2099-1.29001 3.5699-1.29001 1.84 0 3.27.56 4.29 1.68001 1.04 1.1 1.56 2.69 1.56 4.77v9.6h-5.1v-8.85c0-.9-.24-1.6-.72-2.1s-1.14-.75-1.98-.75c-.86 0-1.5799.32-2.1599.96-.56.62-.84 1.45-.84 2.49v8.25z"/><path d="m120.538 30.7v-21.30001h5.1v2.10001h.3c.28-.46.66-.88 1.14-1.26 1.1-.86 2.27-1.29001 3.51-1.29001 1.92 0 3.55.76001 4.89 2.28001 1.34 1.5 2.01 3.49 2.01 5.97s-.67 4.48-2.01 6c-1.34 1.5-2.97 2.25-4.89 2.25-1.26 0-2.43-.42-3.51-1.26-.48-.38-.86-.81-1.14-1.29h-.3v7.8zm6-16.38c-.6.68-.9 1.64-.9 2.88s.3 2.2.9 2.88 1.4 1.02 2.4 1.02 1.8-.34 2.4-1.02.9-1.64.9-2.88-.3-2.2-.9-2.88-1.4-1.02-2.4-1.02-1.8.34-2.4 1.02z"/><path d="m141.284 23.2c-1.34-1.52-2.01-3.52-2.01-6s.67-4.47 2.01-5.97c1.34-1.52 2.97-2.28001 4.89-2.28001 1.24 0 2.41.43001 3.51 1.29001.46.38.84.8 1.14 1.26h.3v-2.10001h5.1v15.60001h-5.1v-2.1h-.3c-.28.48-.66.91-1.14 1.29-1.08.84-2.25 1.26-3.51 1.26-1.92 0-3.55-.75-4.89-2.25zm4.14-8.88c-.6.68-.9 1.64-.9 2.88s.3 2.2.9 2.88 1.4 1.02 2.4 1.02 1.8-.34 2.4-1.02.9-1.64.9-2.88-.3-2.2-.9-2.88-1.4-1.02-2.4-1.02-1.8.34-2.4 1.02z"/><path d="m158.31 19.9h5.1c.08.3.25.58.51.84.54.54 1.32.81 2.34.81 1.4 0 2.1-.35 2.1-1.05 0-.32-.2-.57-.6-.75-.4-.2-1-.4-1.8-.6-.66-.16-1.09-.26-1.29-.3s-.62-.15-1.26-.33c-.64-.2-1.1-.37-1.38-.51-.26-.16-.63-.38-1.11-.66-.46-.3-.8-.6-1.02-.9-.2-.32-.39-.71-.57-1.17-.18-.48-.27-.99-.27-1.53 0-1.32.59-2.45 1.77-3.39 1.18-.94001 2.84-1.41001 4.98-1.41001 2.68 0 4.8.88 6.36 2.64001.62.76 1.05 1.63 1.29 2.61h-4.95c-.12-.32-.26-.57-.42-.75-.46-.5-1.12-.75-1.98-.75-1.2 0-1.8.35-1.8 1.05 0 .34.2.6.6.78s1.01.35 1.83.51c2.06.48 3.45.9 4.17 1.26 1.8.88 2.7 2.23 2.7 4.05 0 1.44-.64 2.65-1.92 3.63-1.26.98-3.07 1.47-5.43 1.47-2.9 0-5.11-.92-6.63-2.76-.68-.82-1.12-1.75-1.32-2.79z"/><path d="m174.951 19.9h5.1c.08.3.25.58.51.84.54.54 1.32.81 2.34.81 1.4 0 2.1-.35 2.1-1.05 0-.32-.2-.57-.6-.75-.4-.2-1-.4-1.8-.6-.66-.16-1.09-.26-1.29-.3s-.62-.15-1.26-.33c-.64-.2-1.1-.37-1.38-.51-.26-.16-.63-.38-1.11-.66-.46-.3-.8-.6-1.02-.9-.2-.32-.39-.71-.57-1.17-.18-.48-.27-.99-.27-1.53 0-1.32.59-2.45 1.77-3.39 1.18-.94001 2.84-1.41001 4.98-1.41001 2.68 0 4.8.88 6.36 2.64001.62.76 1.05 1.63 1.29 2.61h-4.95c-.12-.32-.26-.57-.42-.75-.46-.5-1.12-.75-1.98-.75-1.2 0-1.8.35-1.8 1.05 0 .34.2.6.6.78s1.01.35 1.83.51c2.06.48 3.45.9 4.17 1.26 1.8.88 2.7 2.23 2.7 4.05 0 1.44-.64 2.65-1.92 3.63-1.26.98-3.07 1.47-5.43 1.47-2.9 0-5.11-.92-6.63-2.76-.68-.82-1.12-1.75-1.32-2.79z"/></g><path clip-rule="evenodd" d="m6 6v18h18zm-6-6v30h30v-30z" fill="#ff6e30" fill-rule="evenodd"/></svg>