<svg height="30" viewBox="0 0 30 30" width="30" xmlns="http://www.w3.org/2000/svg"><path d="m12.8527 9.99062c0 1.23668 1.0025 2.23928 2.2392 2.23928s2.2392-1.0026 2.2392-2.23928c0-1.23666-1.0025-2.23922-2.2392-2.23922s-2.2392 1.00256-2.2392 2.23922z"/><path clip-rule="evenodd" d="m15 30c8.2843 0 15-6.7157 15-15 0-8.28427-6.7157-15-15-15-8.28428 0-15 6.71573-15 15 0 8.2843 6.71572 15 15 15zm-5.32499-20.00945c0-2.99163 2.42519-5.41691 5.41689-5.41691s5.4169 2.42528 5.4169 5.41691c0 2.99165-2.4252 5.41715-5.4169 5.41715s-5.41689-2.4255-5.41689-5.41715zm10.86619 8.20345c-.0688.0551-1.3683 1.0821-3.5369 1.5239l3.2734 3.2443c.5757.5747.5763 1.5073.0016 2.0829s-1.5071.5765-2.0829.0016l-3.178-3.0947-2.8865 3.0748c-.289.2998-.6744.4506-1.0603.4506-.3681 0-.7365-.137-1.0223-.4126-.58558-.5647-.60253-1.4971-.0379-2.0826l3.1071-3.2472c-2.2294-.4314-3.58259-1.4851-3.65228-1.541-.63457-.5089-.73651-1.4359-.2276-2.0705.50884-.6346 1.43578-.7365 2.07048-.2277.0134.0109 1.4287 1.0741 3.7092 1.0757 2.2806-.0016 3.6666-1.0648 3.68-1.0757.6347-.5088 1.5616-.4069 2.0705.2277s.4069 1.5616-.2276 2.0705z" fill-rule="evenodd"/></svg>