<svg height="18" viewBox="0 0 18 18" width="18" xmlns="http://www.w3.org/2000/svg"><path d="m16.3425 12.0983c-1.1275 0-2.2183-.1833-3.2358-.5133-.3209-.11-.6784-.0275-.9259.22l-1.4391 1.8058c-2.5942-1.2375-5.02337-3.575-6.31587-6.2608l1.7875-1.52167c.2475-.25666.32084-.61416.22-.935-.33916-1.0175-.51333-2.10833-.51333-3.23583 0-.495-.4125-.9075-.9075-.9075h-3.17167c-.495 0-1.09083.22-1.09083.9075 0 8.5158 7.08583 15.5925 15.5925 15.5925.6508 0 .9075-.5775.9075-1.0817v-3.1625c0-.495-.4125-.9075-.9075-.9075z"/></svg>