<svg fill="none" height="25" viewBox="0 0 25 25" width="25" xmlns="http://www.w3.org/2000/svg"><path d="m24.9113 22.8136-5.0577-4.4563c1.4874-1.981 2.2921-4.403 2.2921-6.9505 0-3.04943-1.1553-5.90873-3.2444-8.06461-2.089-2.15588-4.872-3.34219-7.8285-3.34219-2.95641 0-5.73938 1.19011-7.82846 3.34219-2.09277 2.15208-3.24434 5.01518-3.24434 8.06461 0 3.0456 1.15527 5.9125 3.24434 8.0646 2.08908 2.1559 4.86836 3.3422 7.82846 3.3422 2.473 0 4.8204-.8289 6.7434-2.3574l5.0577 4.4524c.0281.029.0615.052.0982.0676.0367.0157.0761.0238.1159.0238.0397 0 .0791-.0081.1158-.0238.0368-.0156.0701-.0386.0982-.0676l1.6093-1.654c.0281-.0289.0504-.0633.0656-.1011.0153-.0379.0231-.0784.0231-.1194s-.0078-.0815-.0231-.1194c-.0152-.0378-.0375-.0722-.0656-.1011zm-7.992-5.384c-1.565 1.6083-3.6393 2.4942-5.8465 2.4942-2.20715 0-4.28146-.8859-5.84642-2.4942-1.56127-1.6122-2.42126-3.7491-2.42126-6.0228 0-2.27377.85999-4.41444 2.42126-6.0228 1.56496-1.60835 3.63927-2.49428 5.84642-2.49428 2.2072 0 4.2852.88212 5.8465 2.49428s2.4213 3.74903 2.4213 6.0228c0 2.2737-.86 4.4144-2.4213 6.0228z" fill="#fff"/></svg>