<svg height="30" viewBox="0 0 30 30" width="30" xmlns="http://www.w3.org/2000/svg"><path d="m15 0c-8.28399 0-15 6.7157-15 15s6.71601 15 15 15c8.284 0 15-6.7157 15-15s-6.716-15-15-15zm7.6088 16.6223c.6991.6829 1.4388 1.3255 2.0664 2.079.2781.3333.5402.6779.7396 1.0656.2848.5527.0277 1.1588-.4671 1.1917l-3.073-.0006c-.7937.0656-1.4253-.2545-1.9578-.7971-.425-.4324-.8194-.8943-1.2288-1.3415-.1673-.1835-.3434-.3563-.5534-.4922-.4189-.2726-.7829-.1891-1.0229.2486-.2446.4453-.3004.9388-.3238 1.4344-.0334.7246-.2519.914-.979.9481-1.5535.0727-3.0276-.163-4.3976-.9462-1.2086-.6909-2.14408-1.6659-2.95922-2.7698-1.58732-2.1521-2.80297-4.514-3.89525-6.9438-.24583-.5472-.06598-.83998.5377-.85134 1.00297-.01933 2.00593-.01688 3.0089-.00092.40819.00644.67826.24.83509.62516.542 1.3335 1.20648 2.6023 2.03908 3.7789.2219.3134.4484.6258.7709.8471.3561.2443.6274.1636.7952-.2339.1075-.2526.1538-.5226.1771-.7933.0798-.9272.0893-1.854-.0488-2.7775-.0859-.5779-.4109-.95112-.987-1.06037-.2934-.05555-.2504-.1642-.1077-.33177.2477-.28972.4797-.46895.9434-.46895l3.472-.00061c.5473.10741.67.35294.7443.90414l.0031 3.85846c-.0065.2133.1071.8455.4901.9851.3069.1013.5095-.1448.693-.3391.8326-.8836 1.4259-1.9265 1.9571-3.0058.2345-.4761.4367-.9686.6332-1.46214.146-.36491.3732-.54445.785-.53831l3.3435.00399c.0985 0 .1985.00092.2961.0178.5635.09637.7179.33882.5435.88846-.2743.8637-.8074 1.583-1.3285 2.3043-.5586.7722-1.1543 1.5173-1.7074 2.2929-.5082.7089-.468 1.0658.163 1.6815z"/></svg>