<svg fill="none" height="80" viewBox="0 0 80 80" width="80" xmlns="http://www.w3.org/2000/svg" xmlns:xlink="http://www.w3.org/1999/xlink"><clipPath id="a"><path d="m25 24.2857h31.4286v31.4286h-31.4286z"/></clipPath><g clip-path="url(#a)" fill="#212133"><path d="m37.9097 43.3674c0 .3099.2512.5612.5612.5612h.7184c-.1221-.3608-.1661-.7434-.1291-1.1224h-.5893c-.31 0-.5612.2512-.5612.5612z"/><path d="m42.3527 24.3258c-.4369-.0931-.8929-.0088-1.2676.2343-.3747.2432-.6374.6252-.7304 1.0622l-1.6163 10.3041c-.0726.3921-.4088.6806-.8074.6927-.3987.0122-.7518-.2552-.8482-.6422l-1.9811-9.1143c-.0884-.6094-.5023-1.1219-1.0795-1.3365-.5771-.2146-1.2254-.097-1.6904.3066-.465.4035-.6726 1.0288-.5414 1.6304l1.8802 10.2928c.145.7838.1354 1.5883-.0281 2.3684.5739-.5664 1.1872-1.0915 1.8352-1.5714.6742-.5143 1.498-.7941 2.3459-.797h3.749l2.0765-11.4265c.0948-.4377.0114-.8951-.2319-1.2711s-.6264-.6396-1.0645-.7325z"/><path d="m43.1222 45.1183c-.2929.2122-.6247.3648-.9765.449.0762.1223.1437.2499.202.3816.0755.1729.0591.3722-.0438.5304-.1028.1582-.2782.2541-.4669.2554-.2218-.0015-.422-.1335-.5107-.3368-.3582-.8207-1.1698-1.35-2.0653-1.3469h-.7913c-.9299 0-1.6837-.7538-1.6837-1.6837s.7538-1.6837 1.6837-1.6837h1.6837c1.2398 0 2.2449-1.005 2.2449-2.2449v-.5612h-4.574c-.6072 0-1.198.1969-1.6837.5612-2.2 1.6388-4.4056 4.0801-4.4056 6.8638-.0016 1.2543.391 2.4774 1.1224 3.4964l2.8062 3.8725c.4262.5915.6255 1.3166.5612 2.0428h9.5408c0-1.5265-.1515-1.1224 2.3179-5.326.6494-1.3129 1.0074-2.7506 1.0494-4.2148v-2.5928l-1.3076 2.0821c-.5156.8888-1.5092 1.3872-2.5299 1.2691-1.0208-.1182-1.8742-.8304-2.1732-1.8135z"/><path d="m40.18 42.8061c-.1029.4707.0409.9613.3816 1.302s.8314.4845 1.3021.3816c.8137-.1796 1.1224-.8137 1.5433-1.5321 2.2898-3.6592 2.2056-3.5133 2.2449-3.6255.5154-.7239.3471-1.7285-.376-2.2449-.3641-.2036-.7946-.2529-1.1953-.1369s-.7383.3876-.9373.7542l-.1516.2414c.3222.2012.5207.5518.5276.9316v.5612c0 1.8488-1.4905 3.352-3.3393 3.3674z"/><path d="m49.0221 38.8774c-.7288-.4151-1.6561-.1645-2.0765.5613-.3255.5275.2245-.4041-2.576 4.1194-.2209.3484-.2936.7706-.2021 1.1729.1473.5913.6452 1.0297 1.2504 1.1008s1.1912-.2399 1.4716-.7809l2.5816-4.1025c.4478-.6959.2468-1.623-.449-2.071z"/></g><path clip-rule="evenodd" d="m24.6927 3.04482c4.853-2.01019 10.0544-3.04482 15.3073-3.04482s10.4543 1.03463 15.3073 3.04482c4.8531 2.01019 9.2626 4.95656 12.977 8.67088 3.7143 3.7144 6.6607 8.1239 8.6709 12.977 2.0102 4.853 3.0448 10.0544 3.0448 15.3073 0 10.6087-4.2143 20.7828-11.7157 28.2843-7.5015 7.5014-17.6756 11.7157-28.2843 11.7157-5.2529 0-10.4543-1.0346-15.3073-3.0448-4.8531-2.0102-9.2626-4.9566-12.977-8.6709-7.50143-7.5015-11.7157-17.6756-11.7157-28.2843s4.21427-20.7828 11.7157-28.2843c3.7144-3.71432 8.1239-6.66069 12.977-8.67088zm15.6644 59.09808c12.032 0 21.7858-9.7538 21.7858-21.7858 0-12.0319-9.7538-21.7857-21.7858-21.7857-12.0319 0-21.7857 9.7538-21.7857 21.7857 0 12.032 9.7538 21.7858 21.7857 21.7858z" fill="#3f2aff" fill-rule="evenodd"/></svg>