<svg fill="none" height="80" viewBox="0 0 78 80" width="78" xmlns="http://www.w3.org/2000/svg" xmlns:xlink="http://www.w3.org/1999/xlink"><clipPath id="a"><path d="m0 0h77.7778v80h-77.7778z"/></clipPath><clipPath id="b"><path d="m27.0833 27.8571h23.6111v24.2857h-23.6111z"/></clipPath><g clip-path="url(#a)"><path clip-rule="evenodd" d="m24.0068 3.04482c4.7182-2.01019 9.7751-3.04482 14.8821-3.04482 5.1069 0 10.1639 1.03463 14.8821 3.04482s9.0053 4.95656 12.6165 8.67088c3.6111 3.7144 6.4757 8.1239 8.43 12.977 1.9544 4.853 2.9603 10.0544 2.9603 15.3073 0 10.6087-4.0972 20.7828-11.3903 28.2843-7.2931 7.5014-17.1846 11.7157-27.4986 11.7157-5.107 0-10.1639-1.0346-14.8821-3.0448-4.7183-2.0102-9.0053-4.9566-12.6165-8.6709-7.29309-7.5015-11.3903-17.6756-11.3903-28.2843s4.09721-20.7828 11.3903-28.2843c3.6112-3.71432 7.8982-6.66069 12.6165-8.67088zm15.2293 59.09808c11.6977 0 21.1806-9.7538 21.1806-21.7858 0-12.0319-9.4829-21.7857-21.1806-21.7857s-21.1805 9.7538-21.1805 21.7857c0 12.032 9.4828 21.7858 21.1805 21.7858z" fill="#3f2aff" fill-rule="evenodd"/><g clip-path="url(#b)" fill="#212133"><path d="m38.8881 43.1122v-9.2614c-.2552.0243-.5076.0652-.7643.0774h-7.3515c-.4072 0-.7378.34-.7378.7589v.7588h-2.2134c-.4073 0-.7378.34-.7378.7589v4.5533c0 .4189.3305.7589.7378.7589h2.2134v.7589c0 .4189.3306.7589.7378.7589h.4471l2.966 8.1321c.1815.4872.5873.8409 1.086.9441.0989.0212.1978.0318.2952.0318.3939 0 .7687-.1608 1.0373-.4492l1.7722-1.8077c.453-.4659.5607-1.1929.2715-1.756l-2.476-5.0951h1.9596c.2538.0121.5046.0531.7569.0774z"/><path d="m50.5728 28.2244c-.0147-.0258-.028-.047-.0472-.0713-.0811-.1063-.183-.1928-.3084-.2429-.0044-.0015-.0074-.0076-.0118-.0091-.0147-.0045-.028.0031-.0428-.0015-.0664-.0197-.1328-.0425-.2066-.0425-.0501 0-.0944.0197-.1431.0304-.028.006-.0546.0076-.0826.0167-.1269.0425-.2361.1153-.3232.2155-.0059.0061-.0147.0076-.0206.0136-2.3005 2.8732-5.5085 4.7947-9.0219 5.4989v9.7c3.5134.7043 6.7214 2.6242 9.0219 5.4974.0059.0075.0162.0106.0236.0197.0516.0592.1151.1062.1829.1457.0222.0137.0399.0334.062.044.093.041.1933.0668.301.0668.0841 0 .1668-.0152.2494-.044.0044-.0015.0074-.0076.0118-.0091.1254-.0501.2273-.1351.3084-.2429.0177-.0243.031-.0455.0472-.0713.0709-.1169.121-.2459.121-.3916v-19.7309c0-.1457-.0501-.2747-.121-.3916z"/></g></g></svg>