<svg fill="none" height="80" viewBox="0 0 80 80" width="80" xmlns="http://www.w3.org/2000/svg"><path d="m40 0c-5.2529 0-10.4543 1.03463-15.3073 3.04482-4.8531 2.01019-9.2626 4.95656-12.977 8.67088-7.50143 7.5015-11.7157 17.6756-11.7157 28.2843s4.21427 20.7828 11.7157 28.2843c3.7144 3.7143 8.1239 6.6607 12.977 8.6709 4.853 2.0102 10.0544 3.0448 15.3073 3.0448 10.6087 0 20.7828-4.2143 28.2843-11.7157 7.5014-7.5015 11.7157-17.6756 11.7157-28.2843 0-5.2529-1.0346-10.4543-3.0448-15.3073-2.0102-4.8531-4.9566-9.2626-8.6709-12.977-3.7144-3.71432-8.1239-6.66069-12.977-8.67088-4.853-2.01019-10.0544-3.04482-15.3073-3.04482zm0 56c-10.52 0-20-6.28-24-16 5.52-13.24 20.76-19.52 34-14 6.32 2.64 11.36 7.68 14 14-4 9.72-13.48 16-24 16z" fill="#3f2aff"/><path clip-rule="evenodd" d="m40.3571 30.3125c-2.664 0-5.2189 1.0583-7.1026 2.942s-2.942 4.4386-2.942 7.1026 1.0583 5.2189 2.942 7.1027c1.8837 1.8837 4.4386 2.942 7.1026 2.942 2.6641 0 5.2189-1.0583 7.1027-2.942 1.8837-1.8838 2.942-4.4387 2.942-7.1027s-1.0583-5.2189-2.942-7.1026c-1.8838-1.8837-4.4386-2.942-7.1027-2.942zm-.0006 14.5647c2.4964 0 4.5201-2.0237 4.5201-4.5201 0-2.4963-2.0237-4.5201-4.5201-4.5201s-4.5201 2.0238-4.5201 4.5201c0 2.4964 2.0237 4.5201 4.5201 4.5201z" fill="#212133" fill-rule="evenodd"/></svg>