<svg fill="none" height="21" viewBox="0 0 94 21" width="94" xmlns="http://www.w3.org/2000/svg"><path clip-rule="evenodd" d="m13.123 14.968c0 3.298-2.617 5.69-6.775 5.69-1.19465-.0338-2.37075-.3041-3.46033-.7952-1.08959-.4911-2.071047-1.1932-2.88767-2.0658l1.39-1.542c1.302 1.243 2.833 2.451 4.93 2.451 2.33 0 4.841-1.31 4.841-3.664 0-1.955-1.548-3.23-4.802-4.235-3.708-1.137-5.589-2.679-5.589-5.58-.002-2.871 2.418-5.227 5.87-5.227 2.577 0 4.19 1.102 5.759 2.51l-1.367 1.523c-1.376-1.223-2.687-2.052-4.296-2.052-1.996-.001-3.966 1.291-3.966 3.149 0 1.684.964 2.757 4.37 3.803 3.12.964 5.983 2.458 5.983 6.033zm16.825-13.07c0 .904.73 1.638 1.631 1.638.433 0 .848-.173 1.154-.48.2277-.22914.3827-.52044.4455-.83733.0627-.31689.0305-.64527-.0926-.94392-.1232-.298657-.3318-.554286-.5997-.734814s-.5832-.277914-.9062-.279936c-.901 0-1.631.733-1.631 1.638zm20.38 17.778s1.21.987 5.244.987l-.002-.001c3.982 0 7.214-2.922 7.214-6.915 0-3.992-3.23-6.903-7.212-6.903-1.13-.03-2.25.2-3.278.673v-6.918h-1.966zm14.759-5.909c0 3.994 3.226 7.233 7.207 7.233s7.209-3.238 7.21-7.232c0-3.994-3.228-7.232-7.209-7.232-3.98 0-7.208 3.237-7.208 7.231zm26.346 6.57h2.567l-5.676-6.784 5.293-6.362h-2.552l-4.02 4.832-4.041-4.832h-2.567l5.331 6.37-5.636 6.776h2.551l4.364-5.245zm-19.12-11.847c-1.0393.00068-2.0551.30991-2.9185.8885-.8635.57858-1.5357 1.4005-1.9315 2.3615-.3975.9623-.5017 2.0206-.2994 3.0419s.7021 1.96 1.4364 2.6981c.7326.7362 1.6677 1.2379 2.6863 1.4413 1.0185.2033 2.0745.0991 3.0337-.2993.9603-.4004 1.7804-1.0762 2.3571-1.9422.5766-.866.8838-1.8834.8829-2.9238 0-2.908-2.35-5.266-5.248-5.266zm-16.73.333c-1.1754.01631-2.3184.38755-3.279 1.065v8.145c1.0182.4966 2.147.7232 3.278.658 2.896 0 5.245-2.03 5.245-4.934s-2.351-4.935-5.247-4.935h.002zm-9.835-8.223h-1.967v19.734h1.967zm-8.517 0h1.967v19.734h-1.967zm-19.022 12.84-.006-.006.006-.006zm0 6.894v-6.894l6.873 6.897h2.781l-6.88-6.903 6.229-6.253h-2.782l-6.222 6.247v-12.828h-1.967v19.734h1.967zm12.457.003h1.966v-13.156h-1.966z" fill="#fff" fill-rule="evenodd"/></svg>