<svg fill="none" height="24" viewBox="0 0 24 24" width="24" xmlns="http://www.w3.org/2000/svg"><path d="m22.1621 5.65593c-.7635.33769-1.5731.55947-2.402.658.8737-.52257 1.5277-1.34499 1.84-2.314-.82.488-1.719.83-2.656 1.015-.6294-.67342-1.4637-1.12004-2.3731-1.27042s-1.843.00391-2.6557.43887-1.4589 1.12623-1.8381 1.96634c-.3793.84011-.4704 1.78199-.2591 2.67921-1.6629-.08335-3.28972-.51548-4.77476-1.26834-1.48505-.75286-2.79516-1.80962-3.84529-3.10166-.37171.63845-.56704 1.36422-.566 2.103 0 1.45.738 2.731 1.86 3.48097-.66399-.0209-1.31336-.20019-1.894-.52297v.052c.0002.96567.33437 1.90157.94585 2.64907.61148.7474 1.46263 1.2604 2.40915 1.4519-.61638.1671-1.26269.1917-1.89.072.26687.8313.78701 1.5582 1.48759 2.0791.70059.5209 1.54654.8097 2.41941.8259-.86752.6814-1.86082 1.185-2.92312 1.4822-1.06229.2972-2.17275.3821-3.26788.2498 1.9117 1.2295 4.1371 1.8821 6.41 1.88 7.69305 0 11.90005-6.373 11.90005-11.89997 0-.18-.005-.362-.013-.54.8188-.59184 1.5256-1.32498 2.087-2.165z" fill="#fff"/></svg>