<svg fill="none" height="112" width="161" xmlns="http://www.w3.org/2000/svg"><path clip-rule="evenodd" d="m25.58 100.365c20.257 0 24.074-18.09 24.074-32.575h30.094c47.176 0 47.188-67.79 1.504-67.79-12.425 0-20.429 7.65-22.571 10.316-25.49 0-28.587 13.527-28.587 39.791v24.076c0 6.175-2.444 10.182-9.03 10.182-5.623 0-8.286-5.057-10.533-12.153-1.17.638-9.39 5.154-10.531 5.894 2.487 7.09 5.15 22.259 25.58 22.259zm28.64-60.575c7.717 0 8.373 11.79-.547 11.79-7.519 0-7.323-11.79.546-11.79zm27.034 35.33c-6.523 0-25.581-1.435-25.581-1.435v36.347l18.056.262 4.514-26.293 57.178-1.091 1.506 28.827 21.065.263s3.008-56.462 3.008-67.789c0-21.01-9.255-32.901-30.093-33.895-5.222-.249-12.053-1.238-16.552-1.474 19.611 24.236 4.007 66.278-33.101 66.278zm36.112 14.737 1.503 21.356 12.038.263-1.505-21.62h-12.036zm-37.618 20.701 12.037.262 3.008-20.963h-10.533z" fill="#666" fill-rule="evenodd" opacity=".2"/></svg>