<svg fill="none" height="40" viewBox="0 0 40 40" width="40" xmlns="http://www.w3.org/2000/svg" xmlns:xlink="http://www.w3.org/1999/xlink"><linearGradient id="a" gradientUnits="userSpaceOnUse" x1="20" x2="20" y1="0" y2="39.7033"><stop offset="0" stop-color="#2aabee"/><stop offset="1" stop-color="#229ed9"/></linearGradient><path d="m20 40c11.0457 0 20-8.9543 20-20 0-11.04569-8.9543-20-20-20-11.04569 0-20 8.95431-20 20 0 11.0457 8.95431 20 20 20z" fill="url(#a)"/><path clip-rule="evenodd" d="m9.05312 19.7889 11.66358-5.024c5.5543-2.3102 6.7083-2.7115 7.4606-2.7247.1655-.0029.5354.0381.775.2325.2024.1642.258.386.2847.5416.0266.1556.0598.5103.0334.7874-.301 3.1624-1.6034 10.8369-2.2659 14.3789-.2804 1.4988-.832 2.0013-1.3668 2.0505-1.1615.1069-2.0434-.7676-3.1683-1.505l-4.4634-2.9981c-1.9746-1.3012-.6946-2.0164.4308-3.1852.2945-.306 5.4118-4.9605 5.5108-5.3828.012-.0528.0239-.2496-.093-.3536-.117-.104-.2896-.068-.4142-.0401-.1765.0401-2.9885 1.8987-8.436 5.576-.7982.5481-1.5212.8152-2.169.8012-.7141-.0154-2.0877-.4038-3.10888-.7357-1.25252-.4071-2.248-.6224-2.16128-1.3139.04512-.3601.54108-.7284 1.48784-1.1049z" fill="#fff" fill-rule="evenodd"/></svg>