<svg fill="none" height="40" viewBox="0 0 40 40" width="40" xmlns="http://www.w3.org/2000/svg"><path d="m20 39.375c10.7005 0 19.375-8.6745 19.375-19.375 0-10.70052-8.6745-19.375-19.375-19.375-10.70052 0-19.375 8.67448-19.375 19.375 0 10.7005 8.67448 19.375 19.375 19.375z" fill="#30bf39"/><path d="m25.8749 21.751c-.25-.125-1.5625-.875-1.8125-.9375-.25-.125-.4375-.125-.625.125s-.75.875-.875 1c-.1875.1875-.3125.1875-.5625.0625s-1.125-.4375-2.125-1.4375c-.75-.75-1.3125-1.625-1.4375-1.9375-.125-.25 0-.4375.125-.5625s.25-.3125.4375-.4375.1875-.25.3125-.4375.0625-.3125 0-.5-.5625-1.5-.75-2.0625-.4375-.4375-.5625-.5c-.1875 0-.3125-.0625-.5-.0625-.25 0-.5625.125-.75.3125-.25.25-1 .875-1 2.1875s.875 2.6875 1 2.8125c.125.1875 1.75 3.0625 4.4375 4.25s2.6875.8125 3.1875.8125 1.625-.625 1.875-1.1875c.25-.625.25-1.1875.1875-1.25-.125 0-.3125-.0625-.5625-.25zm-5 6.4375c-1.75 0-3.375-.5-4.8125-1.4375l-3.375 1.0625 1.125-3.25c-1.0625-1.5-1.6875-3.3125-1.6875-5.1875 0-4.875 3.9375-8.8125 8.8125-8.8125s8.75 3.9375 8.75 8.8125-3.9375 8.8125-8.8125 8.8125zm0-19.37502c-5.8125 0-10.5625 4.75002-10.5625 10.56252 0 1.9375.5 3.8125 1.5 5.4375l-1.93751 5.6875 5.87501-1.875c1.5625.875 3.3125 1.3125 5.125 1.3125 5.8125 0 10.5625-4.75 10.5625-10.5625s-4.6875-10.56252-10.5625-10.56252z" fill="#fff"/></svg>