<svg height="40" viewBox="0 0 40 40" width="40" xmlns="http://www.w3.org/2000/svg"><path d="m20.273438.078125c-10.820313 0-19.671876 8.867187-19.671876 19.792969 0 9.875 7.199219 18.070312 16.601563 19.550781v-13.824219h-4.996094v-5.726562h4.996094v-4.367188c0-4.957031 2.933594-7.683594 7.4375-7.683594 2.144531 0 4.386719.375 4.386719.375v4.878907h-2.480469c-2.4375 0-3.203125 1.523437-3.203125 3.082031v3.714844h5.46875l-.886719 5.726562h-4.582031v13.824219c4.632812-.734375 8.855469-3.109375 11.898438-6.695313 3.046874-3.585937 4.714843-8.144531 4.703124-12.855468 0-10.925782-8.851562-19.792969-19.671874-19.792969zm0 0" fill="#7c7c7c"/></svg>