<?xml version="1.0" encoding="UTF-8"?>
<svg xmlns="http://www.w3.org/2000/svg" xmlns:xlink="http://www.w3.org/1999/xlink" width="40px" height="40px" viewBox="0 0 40 40" version="1.1">
<g id="surface1">
<path style=" stroke:none;fill-rule:nonzero;fill:rgb(48.627451%,48.627451%,48.627451%);fill-opacity:1;" d="M 20.273438 0.078125 C 9.453125 0.078125 0.601562 8.945312 0.601562 19.871094 C 0.601562 29.746094 7.800781 37.941406 17.203125 39.421875 L 17.203125 25.597656 L 12.207031 25.597656 L 12.207031 19.871094 L 17.203125 19.871094 L 17.203125 15.503906 C 17.203125 10.546875 20.136719 7.820312 24.640625 7.820312 C 26.785156 7.820312 29.027344 8.195312 29.027344 8.195312 L 29.027344 13.074219 L 26.546875 13.074219 C 24.109375 13.074219 23.34375 14.597656 23.34375 16.15625 L 23.34375 19.871094 L 28.8125 19.871094 L 27.925781 25.597656 L 23.34375 25.597656 L 23.34375 39.421875 C 27.976562 38.6875 32.199219 36.3125 35.242188 32.726562 C 38.289062 29.140625 39.957031 24.582031 39.945312 19.871094 C 39.945312 8.945312 31.09375 0.078125 20.273438 0.078125 Z M 20.273438 0.078125 "/>
</g>
</svg>
