<svg fill="none" height="61" viewBox="0 0 61 61" width="61" xmlns="http://www.w3.org/2000/svg"><path d="m30.9166.120117c-16.4999 0-29.999928 13.524083-29.999928 30.180683 0 15.0603 10.980028 27.5603 25.319928 29.8193v-21.0843h-7.62v-8.735h7.62v-6.6566c0-7.5602 4.47-11.7169 11.34-11.7169 3.27 0 6.69.5723 6.69.5723v7.4398h-3.78c-3.72 0-4.89 2.3193-4.89 4.6988v5.6626h8.34l-1.35 8.735h-6.99v21.0843c7.0693-1.1209 13.5066-4.7424 18.1498-10.2106 4.6431-5.4683 7.1862-12.423 7.1702-19.6087 0-16.6566-13.5-30.180683-30-30.180683z" fill="#7c7c7c"/></svg>