<svg height="101" viewBox="0 0 117 101" width="117" xmlns="http://www.w3.org/2000/svg"><g transform="matrix(.65048544 0 0 .65048544 -.325243 0)"><circle cx="60" cy="93" fill="#f90" r="59.5" stroke="#f90"/><g fill-rule="evenodd"><path d="m114 47c-8.837 0-16 7.1634-16 16s7.163 16 16 16 16-7.1634 16-16-7.163-16-16-16zm-18 16c0-9.9411 8.059-18 18-18s18 8.0589 18 18-8.059 18-18 18-18-8.0589-18-18z"/><path d="m114.5 2.00526c-2.748 0-5.383 1.09156-7.326 3.03453-1.943 1.94298-3.035 4.57822-3.035 7.32601v.9659.004c-.008 2.0237-.607 4.001-1.725 5.6883-1.117 1.6874-2.7036 3.0112-4.5638 3.8084-.1248.0535-.2592.0811-.3949.0811h-.2487c-1.8445.7685-3.8733.9887-5.8424.6316-2.0402-.3699-3.9228-1.3425-5.405-2.7924l-.0079-.0078-.3409-.3409c-.9622-.9633-2.1053-1.7279-3.363-2.2493-1.2578-.5213-2.6059-.7897-3.9675-.7897-1.3615 0-2.7097.2684-3.9674.7897-1.2578.5214-2.4004 1.2856-3.3626 2.2489l-.0008.0008c-.9633.9622-1.7275 2.1049-2.2489 3.3626s-.7897 2.6059-.7897 3.9675c0 1.3615.2683 2.7097.7897 3.9674.5214 1.2578 1.2856 2.4004 2.2489 3.3626l.3491.3491c1.4499 1.4823 2.4225 3.3649 2.7924 5.4051.368 2.0298.1227 4.123-.7043 6.0124-.7208 1.9417-2.0064 3.6235-3.6915 4.8288-1.6936 1.2113-3.7125 1.8851-5.7942 1.9338l-.0235.0003h-.5113c-2.7478 0-5.383 1.0916-7.326 3.0345-1.943 1.943-3.0345 4.5782-3.0345 7.326s1.0915 5.3831 3.0345 7.326c1.943 1.943 4.5782 3.0346 7.326 3.0346h.9699c2.0237.008 4.001.6077 5.6883 1.7251 1.6859 1.1165 3.0088 2.7012 3.8063 4.5592.8354 1.8957 1.0844 3.998.7148 6.0364-.3699 2.0402-1.3425 3.9228-2.7924 5.405l-.0078.008-.3409.3408c-.9633.9622-1.7279 2.1053-2.2493 3.363-.5213 1.2578-.7897 2.6059-.7897 3.9675 0 1.3619.2684 2.7099.7897 3.9679.5214 1.257 1.2856 2.4 2.2489 3.362l.0008.001c.9622.963 2.1048 1.727 3.3626 2.249 1.2577.521 2.6059.79 3.9675.79 1.3615 0 2.7097-.269 3.9674-.79 1.2578-.522 2.4004-1.286 3.3626-2.249l.3491-.349c1.4823-1.45 3.3649-2.423 5.4051-2.793 2.0298-.368 4.123-.122 6.0124.705 1.9417.721 3.6239 2.006 4.8289 3.691 1.211 1.694 1.885 3.713 1.934 5.794v.024.511c0 2.748 1.092 5.383 3.035 7.326 1.942 1.943 4.578 3.035 7.326 3.035 2.747 0 5.383-1.092 7.326-3.035 1.942-1.943 3.034-4.578 3.034-7.326v-.966-.004c.008-2.023.608-4.001 1.725-5.688 1.117-1.686 2.701-3.009 4.559-3.806 1.896-.836 3.998-1.085 6.037-.715 2.04.37 3.923 1.342 5.405 2.792l.008.008.341.341c.962.963 2.105 1.728 3.363 2.249 1.257.522 2.606.79 3.967.79 1.362 0 2.71-.268 3.968-.79 1.257-.521 2.4-1.285 3.362-2.249h.001c.963-.963 1.727-2.105 2.249-3.363.521-1.258.79-2.606.79-3.9675s-.269-2.7097-.79-3.9674c-.522-1.2578-1.286-2.4004-2.249-3.3626l-.349-.3491c-1.45-1.4823-2.423-3.3649-2.793-5.4051-.369-2.0386-.12-4.1411.715-6.0369.798-1.8578 2.121-3.4423 3.806-4.5587 1.688-1.1174 3.665-1.7171 5.689-1.7252h.004.511c2.748 0 5.383-1.0915 7.326-3.0345s3.035-4.5782 3.035-7.326-1.092-5.383-3.035-7.326-4.578-3.0345-7.326-3.0345h-.966-.004c-2.023-.0081-4.001-.6078-5.688-1.7252-1.687-1.1175-3.011-2.7039-3.808-4.5641-.054-.1248-.081-.2592-.081-.3949v-.2487c-.769-1.8445-.989-3.8733-.632-5.8424.37-2.0402 1.342-3.9228 2.792-5.405l.008-.0079.341-.3409c.963-.9622 1.728-2.1053 2.249-3.363.522-1.2578.79-2.6059.79-3.9675 0-1.3615-.268-2.7097-.79-3.9674-.521-1.2578-1.285-2.4004-2.249-3.3626v-.0008c-.963-.9633-2.105-1.7275-3.363-2.2489s-2.606-.7897-3.967-.7897c-1.362 0-2.71.2683-3.968.7897s-2.4 1.2856-3.363 2.2489l-.349.3491c-1.482 1.4499-3.365 2.4225-5.405 2.7924-2.038.3696-4.14.1206-6.036-.7148-1.858-.7975-3.443-2.1204-4.559-3.8063-1.118-1.6873-1.717-3.6646-1.725-5.6884v-.004-.5113c0-2.74779-1.092-5.38303-3.035-7.32601-1.943-1.94297-4.578-3.03453-7.326-3.03453zm-8.744 1.6166c2.319-2.31904 5.464-3.62186 8.744-3.62186s6.425 1.30282 8.744 3.62186c2.319 2.31903 3.622 5.46432 3.622 8.74394v.5073.0019c.007 1.6321.49 3.2266 1.392 4.5873.901 1.3613 2.181 2.4293 3.682 3.0725l.01.0042c1.53.6754 3.228.8769 4.874.5785 1.644-.2981 3.161-1.0815 4.356-2.2492.002-.0012.003-.0024.004-.0036l.333-.3328c0-.0001 0 .0002 0 0 1.148-1.1495 2.512-2.0619 4.013-2.6841 1.501-.6223 3.11-.9426 4.736-.9426 1.625 0 3.234.3203 4.735.9426 1.501.6222 2.864 1.534 4.013 2.6833 1.149 1.1485 2.061 2.5123 2.684 4.0135.622 1.5012.942 3.1103.942 4.7353 0 1.6251-.32 3.2342-.942 4.7354-.623 1.5012-1.535 2.865-2.684 4.0134l-.333.3327c-.001.0013-.003.0026-.004.0039-1.168 1.1952-1.951 2.7125-2.249 4.3567-.298 1.6459-.097 3.3435.578 4.8739.057.1275.086.2654.086.4048v.2427c.65 1.4217 1.686 2.6344 2.991 3.499 1.361.9012 2.955 1.3849 4.587 1.3918h.964c3.28 0 6.425 1.3028 8.744 3.6219 2.319 2.319 3.622 5.4643 3.622 8.7439s-1.303 6.4249-3.622 8.7439c-2.319 2.3191-5.464 3.6219-8.744 3.6219h-.507c-.001 0-.001 0-.002 0-1.632.0069-3.227.4906-4.587 1.3918-1.362.9015-2.43 2.1814-3.073 3.6821l-.004.0099c-.675 1.5304-.877 3.228-.579 4.8739.299 1.6441 1.082 3.1613 2.249 4.3565.002.0014.003.0027.004.0041l.333.3326c1.15 1.1484 2.062 2.5125 2.684 4.0135.622 1.5012.943 3.1103.943 4.7353 0 1.6255-.321 3.2345-.943 4.7355s-1.534 2.865-2.684 4.013c-1.148 1.149-2.512 2.061-4.013 2.684-1.501.622-3.11.942-4.735.942s-3.234-.32-4.735-.942c-1.501-.623-2.865-1.535-4.013-2.684l-.333-.333c-.002-.002-.003-.003-.004-.004-1.196-1.168-2.713-1.951-4.357-2.249-1.646-.298-3.344-.097-4.874.578l-.01.005c-1.5.643-2.78 1.711-3.682 3.072-.901 1.361-1.385 2.955-1.392 4.587v.002.962c0 3.28-1.303 6.425-3.622 8.744s-5.464 3.622-8.743 3.622c-3.28 0-6.425-1.303-8.744-3.622s-3.622-5.464-3.622-8.744v-.499c-.042-1.676-.585-3.3-1.56-4.663-.977-1.367-2.3432-2.407-3.9198-2.987-.0107-.004-.0213-.008-.0318-.013-.009-.003-.018-.007-.027-.011-1.5303-.675-3.228-.877-4.8739-.579-1.6442.299-3.1615 1.082-4.3567 2.25-.0013.001-.0026.002-.0039.003l-.3326.333c-1.1485 1.15-2.5123 2.062-4.0135 2.684s-3.1103.943-4.7353.943c-1.6251 0-3.2342-.321-4.7354-.943s-2.865-1.534-4.0134-2.684c-1.1494-1.148-2.0612-2.512-2.6834-4.013-.6223-1.501-.9426-3.11-.9426-4.7349 0-1.6251.3203-3.2342.9426-4.7354.6223-1.501 1.5342-2.8647 2.6838-4.013.0001-.0002-.0002.0001 0 0l.3331-.3331c.0012-.0012.0025-.0025.0037-.0038 1.1677-1.1952 1.951-2.7126 2.2491-4.3568.2985-1.6459.097-3.3435-.5784-4.8739l-.0044-.0098c-.6432-1.5008-1.7111-2.7807-3.0724-3.6822-1.3607-.9011-2.9552-1.3849-4.5873-1.3918-.0006 0-.0012 0-.0018 0h-.9619c-3.2796 0-6.4249-1.3028-8.7439-3.6218-2.3191-2.3191-3.6219-5.4644-3.6219-8.744s1.3028-6.4249 3.6219-8.7439c2.319-2.319 5.4643-3.6219 8.7439-3.6219h.4993c1.6754-.0414 3.2999-.5848 4.6632-1.5599 1.3664-.9772 2.4071-2.343 2.987-3.9196.0073-.0198.0152-.0394.0237-.0588.6755-1.5303.8769-3.228.5785-4.8739-.2981-1.6442-1.0814-3.1615-2.2491-4.3568l-.3365-.3364c-1.1497-1.1485-2.0618-2.5123-2.6841-4.0135s-.9426-3.1103-.9426-4.7353c0-1.6251.3203-3.2342.9426-4.7354s1.5344-2.865 2.6841-4.0134c1.1483-1.1494 2.5118-2.0612 4.0127-2.6834 1.5012-.6223 3.1103-.9426 4.7353-.9426 1.6251 0 3.2342.3203 4.7354.9426 1.501.6223 2.8647 1.5342 4.013 2.6838.0002.0001-.0001-.0002 0 0l.337.3369c1.1952 1.1676 2.7125 1.9509 4.3567 2.249 1.6459.2985 3.3435.097 4.8739-.5784.1275-.0563.2654-.0854.4048-.0854h.2427c1.4217-.65 2.6344-1.6858 3.4986-2.9914.902-1.3607 1.385-2.9552 1.392-4.5873v-.9637c0-3.27962 1.303-6.42491 3.622-8.74394z"/></g></g></svg>