<svg fill="none" height="49" viewBox="0 0 64 49" width="64" xmlns="http://www.w3.org/2000/svg"><circle cx="21.5" cy="27.5" fill="#f90" r="21" stroke="#f90"/><g clip-rule="evenodd" fill="#000" fill-rule="evenodd"><path d="m42.4093 15.7002c-2.9927 0-5.4188 2.4261-5.4188 5.4188 0 2.9928 2.4261 5.4189 5.4188 5.4189 2.9928 0 5.4189-2.4261 5.4189-5.4189 0-2.9927-2.4261-5.4188-5.4189-5.4188zm-6.0962 5.4188c0-3.3668 2.7294-6.0962 6.0962-6.0962 3.3669 0 6.0962 2.7294 6.0962 6.0962 0 3.3669-2.7293 6.0962-6.0962 6.0962-3.3668 0-6.0962-2.7293-6.0962-6.0962z"/><path d="m42.5.678947c-.9304 0-1.8226.369583-2.4805 1.027443-.6578.65785-1.0274 1.5501-1.0274 2.48045v.32703.00135c-.0027.68522-.2058 1.35469-.5841 1.92599-.3784.57131-.9155 1.01951-1.5453 1.28945-.0423.01811-.0878.02744-.1338.02744h-.0842c-.6245.2602-1.3114.33475-1.9781.21387-.6908-.12525-1.3282-.45457-1.83-.94548l-.0027-.00262-.1154-.11543c-.3258-.32615-.7128-.58503-1.1387-.76156-.4258-.17653-.8823-.26739-1.3433-.26739s-.9175.09086-1.3433.26739c-.4259.17653-.8127.43527-1.1385.76143l-.0003.00026c-.3261.32579-.5849.71267-.7614 1.13852-.1765.42586-.2674.88233-.2674 1.34332s.0909.91749.2674 1.34329c.1765.4259.4353.8128.7614 1.1385l.1182.1182c.4909.5019.8202 1.1393.9455 1.8301.1246.6873.0415 1.396-.2385 2.0357-.2441.6574-.6793 1.2269-1.2499 1.6349-.5734.4102-1.257.6383-1.9618.6548l-.0079.0001h-.1732c-.9303 0-1.8226.3696-2.4804 1.0274-.6579.6579-1.0275 1.5501-1.0275 2.4805 0 .9303.3696 1.8226 1.0275 2.4804.6578.6579 1.5501 1.0275 2.4804 1.0275h.3284c.6852.0027 1.3547.2058 1.926.5841.5708.378 1.0187.9146 1.2887 1.5437.2829.6418.3672 1.3536.2421 2.0438-.1253.6908-.4546 1.3282-.9455 1.83l-.0026.0027-.1155.1154c-.3261.3258-.585.7128-.7615 1.1387-.1765.4258-.2674.8823-.2674 1.3433s.0909.9175.2674 1.3433c.1765.4259.4353.8127.7614 1.1385l.0003.0003c.3258.3261.7126.5849 1.1385.7614.4258.1765.8823.2674 1.3433.2674s.9175-.0909 1.3433-.2674c.4259-.1765.8128-.4353 1.1385-.7614l.1182-.1182c.5019-.4909 1.1393-.8202 1.8301-.9455.6873-.1246 1.396-.0415 2.0357.2385.6574.2441 1.2269.6793 1.6349 1.2498.4102.5735.6383 1.2571.6548 1.9619l.0001.0079v.1732c0 .9303.3696 1.8226 1.0274 2.4804.6579.6579 1.5501 1.0275 2.4805 1.0275.9303 0 1.8226-.3696 2.4804-1.0275.6579-.6578 1.0275-1.5501 1.0275-2.4804v-.3271-.0013c.0027-.6852.2058-1.3547.5841-1.926.378-.5708.9145-1.0187 1.5435-1.2887.6419-.2829 1.3537-.3672 2.044-.2421.6908.1253 1.3282.4546 1.83.9455l.0027.0026.1154.1155c.3258.3261.7128.585 1.1387.7615.4258.1765.8823.2674 1.3433.2674s.9174-.0909 1.3433-.2674c.4258-.1765.8127-.4353 1.1385-.7614l.0003-.0003c.3261-.3258.5849-.7126.7614-1.1385.1765-.4258.2674-.8823.2674-1.3433s-.0909-.9175-.2674-1.3433c-.1765-.4259-.4353-.8128-.7614-1.1385l-.1182-.1182c-.4909-.5019-.8202-1.1393-.9455-1.8301-.1251-.6902-.0408-1.4021.2421-2.044.27-.629.7179-1.1655 1.2887-1.5435.5713-.3783 1.2407-.5814 1.926-.5841h.0013.1732c.9303 0 1.8226-.3696 2.4804-1.0274.6579-.6579 1.0275-1.5501 1.0275-2.4805s-.3696-1.8226-1.0275-2.4805c-.6578-.6578-1.5501-1.0274-2.4804-1.0274h-.3271-.0013c-.6852-.0027-1.3547-.2058-1.926-.5841-.5713-.3784-1.0195-.9155-1.2895-1.5453-.0181-.0423-.0274-.0878-.0274-.1338v-.0842c-.2602-.6245-.3348-1.3114-.2139-1.9781.1253-.6908.4546-1.3282.9455-1.83l.0026-.0027.1155-.1154c.3261-.3258.585-.7128.7615-1.1387.1765-.4258.2674-.8823.2674-1.34329s-.0909-.91746-.2674-1.34331-.4353-.81273-.7614-1.13852l-.0003-.00027c-.3258-.32615-.7126-.58489-1.1385-.76142-.4258-.17653-.8823-.2674-1.3433-.2674s-.9175.09087-1.3433.2674c-.4259.17653-.8128.43527-1.1386.76142l-.1181.1182c-.5019.49091-1.1393.82021-1.8301.94546-.6902.12514-1.402.04085-2.0438-.24202-.6291-.27-1.1657-.71793-1.5437-1.28873-.3783-.5713-.5814-1.24077-.5841-1.92599v-.00136-.17313c0-.93035-.3696-1.8226-1.0274-2.48045-.6579-.65786-1.5501-1.027443-2.4805-1.027443zm-2.9605.547353c.7851-.785187 1.8501-1.2263 2.9605-1.2263s2.1754.441113 2.9605 1.2263c.7852.78518 1.2263 1.85012 1.2263 2.96054v.17178.00063c.0024.55259.1662 1.09246.4713 1.55319.3052.46091.7386.8225 1.2467 1.04027l.0033.00144c.5182.22868 1.093.29692 1.6503.19587.5567-.10094 1.0704-.36617 1.4751-.76153.0004-.00042.0009-.00083.0013-.00125l.1126-.11265c0-.00004 0 .00004 0 0 .3888-.38922.8507-.69812 1.3589-.9088.5083-.21069 1.0531-.31915 1.6033-.31915s1.095.10846 1.6033.31915c.5082.21066.9698.51938 1.3586.90853.3893.38885.6981.85061.9088 1.35888.2107.50828.3192 1.0531.3192 1.60331 0 .55022-.1085 1.09499-.3192 1.60329s-.5195.9701-.9088 1.3589l-.1126.1126c-.0005.0005-.0009.0009-.0013.0014-.3954.4046-.6606.9184-.7615 1.475-.1011.5573-.0328 1.1321.1958 1.6503.0191.0432.0289.0899.0289.1371v.0821c.2201.4814.5708.892 1.0129 1.1847.4607.3051 1.0006.4689 1.5532.4713h.3263c1.1104 0 2.1753.4411 2.9605 1.2263.7852.7851 1.2263 1.8501 1.2263 2.9605s-.4411 2.1754-1.2263 2.9605c-.7852.7852-1.8501 1.2263-2.9605 1.2263h-.1718c-.0002 0-.0004 0-.0007 0-.5525.0024-1.0924.1662-1.5531.4713-.4609.3052-.8225.7386-1.0403 1.2467l-.0015.0033c-.2286.5182-.2969 1.093-.1958 1.6503.1009.5566.3661 1.0703.7614 1.475.0005.0005.0009.0009.0013.0014l.1127.1126c.3892.3888.6981.8507.9088 1.3589.2107.5083.3192 1.0531.3192 1.6033s-.1085 1.095-.3192 1.6033c-.2107.5082-.5194.9699-.9087 1.3587-.3888.3893-.8505.698-1.3587.9087-.5083.2107-1.0531.3192-1.6033.3192s-1.0951-.1085-1.6033-.3192-.97-.5194-1.3588-.9087c0 0 .0001.0001 0 0l-.1127-.1127c-.0005-.0005-.001-.0009-.0014-.0014-.4047-.3953-.9184-.6605-1.4751-.7614-.5572-.1011-1.132-.0328-1.6502.1958l-.0033.0015c-.5081.2178-.9415.5794-1.2467 1.0403-.3051.4607-.4689 1.0006-.4713 1.5532v.0006.3257c0 1.1104-.4411 2.1753-1.2263 2.9605s-1.8501 1.2263-2.9605 1.2263-2.1754-.4411-2.9606-1.2263c-.7851-.7852-1.2262-1.8501-1.2262-2.9605v-.1691c-.0141-.5673-.1981-1.1173-.5282-1.5789-.3309-.4626-.7933-.815-1.3271-1.0113-.0036-.0014-.0072-.0027-.0108-.0042-.0031-.0012-.0061-.0025-.0091-.0039-.5182-.2286-1.093-.2969-1.6503-.1958-.5566.1009-1.0704.3661-1.4751.7615-.0004.0004-.0008.0008-.0013.0013l-.1126.1126c-.3888.3893-.8506.6981-1.3589.9088s-1.0531.3192-1.6033.3192-1.095-.1085-1.6033-.3192-.97-.5195-1.3589-.9088c-.3891-.3888-.6979-.8504-.9085-1.3586-.2107-.5083-.3192-1.0531-.3192-1.6033s.1085-1.095.3192-1.6033c.2107-.5082.5194-.97.9087-1.3588 0 0-.0001.0001 0 0l.1127-.1127c.0005-.0005.0009-.0009.0013-.0013.3954-.4047.6606-.9185.7615-1.4752.1011-.5572.0328-1.132-.1958-1.6502l-.0015-.0033c-.2178-.5081-.5794-.9415-1.0403-1.2467-.4607-.3051-1.0006-.4689-1.5532-.4713-.0002 0-.0004 0-.0006 0h-.3257c-1.1104 0-2.1753-.4411-2.9605-1.2263-.7852-.7851-1.2263-1.8501-1.2263-2.9605s.4411-2.1754 1.2263-2.9606c.7852-.7851 1.8501-1.2262 2.9605-1.2262h.1691c.5673-.0141 1.1173-.1981 1.5789-.5282.4626-.3309.815-.7933 1.0113-1.3271.0025-.0067.0052-.0134.0081-.0199.2286-.5182.2969-1.093.1958-1.6503-.1009-.5567-.3661-1.0704-.7615-1.4751l-.1139-.1139c-.3893-.3888-.6981-.8506-.9088-1.3589s-.3192-1.05308-.3192-1.60329c0-.55022.1085-1.09504.3192-1.60331.2107-.50828.5195-.97004.9088-1.35888.3888-.38915.8504-.69788 1.3586-.90853.5083-.2107 1.0531-.31915 1.6033-.31915s1.095.10845 1.6033.31915c.5082.21067.97.51944 1.3588.90866 0 .00004-.0001-.00004 0 0l.1141.11408c.4046.39534.9184.66055 1.475.76148.5573.10105 1.1321.03283 1.6503-.19585.0432-.01906.0899-.0289.1371-.0289h.0821c.4814-.22008.892-.57078 1.1847-1.01283.3051-.46073.4689-1.00059.4713-1.55318v-.32631c0-1.11042.4411-2.17536 1.2263-2.96054z"/></g></svg>