<svg fill="none" height="137" viewBox="0 0 178 137" width="178" xmlns="http://www.w3.org/2000/svg"><circle cx="60" cy="77" fill="#f90" r="60"/><g clip-rule="evenodd" fill="#000" fill-rule="evenodd"><path d="m89.1306 15.4903c.269-.4686.8654-.6294 1.3319-.3592l57.0495 33.0409c.466.2702.626.8691.357 1.3377s-.865.6294-1.332.3592l-57.0488-33.0409c-.4666-.2702-.6267-.8691-.3576-1.3377z"/><path d="m111.502 1.87485c2.128-1.228243 4.541-1.87485 6.998-1.87485s4.87.646607 6.998 1.87485c.001.00039.001.00078.002.00117l45.5 26.00528c2.126 1.2278 3.892 2.9932 5.121 5.1191 1.228 2.126 1.876 4.5377 1.879 6.9933v52.0126c-.003 2.4556-.651 4.8673-1.879 6.9932-1.229 2.1265-2.995 3.8915-5.121 5.1195l-.004.002-45.496 26.003s-.001 0-.001.001c-2.128 1.228-4.542 1.875-6.999 1.875s-4.871-.647-6.999-1.875c0-.001-.001-.001-.001-.001l-45.4961-26.003-.0039-.002c-2.1262-1.228-3.8921-2.993-5.1208-5.1195-1.2286-2.1259-1.8767-4.5376-1.8792-6.9932v-52.0126c.0025-2.4556.6506-4.8673 1.8792-6.9933 1.2287-2.1259 2.9946-3.8913 5.1208-5.1191l.0039-.0022 45.4961-26.00308c.001-.00039.001-.00078.002-.00117zm6.998.12555c-2.106 0-4.176.55459-6 1.60802l-.004.00222-45.496 26.00306c-.0007.0004-.0014.0008-.002.0011-1.8215 1.0524-3.3345 2.5652-4.3872 4.3867-1.0531 1.8221-1.6086 3.8892-1.6108 5.9938v52.0094c.0022 2.1046.5577 4.1716 1.6108 5.9938 1.0526 1.8214 2.5655 3.3345 4.3869 4.3865.0007 0 .0015.001.0023.001l45.5 26.006c1.824 1.053 3.894 1.608 6 1.608s4.176-.555 6-1.608l.004-.003 45.496-26.003c.001 0 .002-.001.002-.001 1.822-1.052 3.335-2.5651 4.387-4.3865 1.053-1.8223 1.609-3.8895 1.611-5.9943v-52.0084c-.002-2.1048-.558-4.172-1.611-5.9943-1.052-1.8215-2.565-3.3343-4.387-4.3867-.001-.0003-.001-.0007-.002-.0011l-45.496-26.00306-.004-.00222c-1.824-1.05343-3.894-1.60802-6-1.60802z"/><path d="m61.1328 33.4876c.273-.4667.8768-.6262 1.3487-.3562l55.5185 31.7644 55.518-31.7644c.472-.27 1.076-.1105 1.349.3562s.112 1.064-.36 1.334l-56.013 32.0472c-.306.1749-.682.1749-.988 0l-56.013-32.0472c-.4719-.27-.6332-.8673-.3602-1.334z"/><path d="m118 65c.552 0 1 .4376 1 .9775v64.0455c0 .539-.448.977-1 .977s-1-.438-1-.977v-64.0455c0-.5399.448-.9775 1-.9775z"/></g></svg>