<svg fill="none" height="49" viewBox="0 0 64 49" width="64" xmlns="http://www.w3.org/2000/svg" xmlns:xlink="http://www.w3.org/1999/xlink"><clipPath id="a"><path d="m21 0h43v48h-43z"/></clipPath><circle cx="21.5" cy="27.5" fill="#f90" r="21.5"/><g clip-path="url(#a)" clip-rule="evenodd" fill="#000" fill-rule="evenodd"><path d="m31.889 5.58662c.0972-.16935.3127-.22746.4813-.12981l20.6172 11.94069c.1686.0977.2265.3141.1293.4835-.0973.1693-.3128.2274-.4814.1298l-20.6172-11.94074c-.1686-.09765-.2265-.3141-.1292-.48344z"/><path d="m39.9738.666082c.769-.443878 1.6412-.6775566 2.529-.6775566.8879 0 1.7601.2336786 2.529.6775566.0003.000141.0005.000282.0008.000423l16.4433 9.398095c.7684.4437 1.4066 1.0817 1.8506 1.85s.6783 1.6399.6792 2.5273v18.797c-.0009.8874-.2352 1.759-.6792 2.5273s-1.0822 1.4063-1.8506 1.85l-.0014.0008-16.4419 9.3973c-.0002.0001-.0003.0002-.0004.0002-.7691.444-1.6414.6778-2.5294.6778-.8879 0-1.7603-.2338-2.5293-.6778-.0001 0-.0003-.0001-.0004-.0002l-16.442-9.3973-.0014-.0008c-.7683-.4437-1.4065-1.0817-1.8506-1.85-.444-.7683-.6782-1.6399-.6791-2.5273v-18.797c.0009-.8874.2351-1.759.6791-2.5273.4441-.7683 1.0823-1.4063 1.8506-1.85l.0014-.0008 16.442-9.397295c.0002-.000141.0005-.000282.0007-.000423zm2.529.045374c-.7612 0-1.5091.200423-2.1683.581124l-.0014.0008-16.442 9.39732c-.0002.0001-.0005.0003-.0007.0004-.6583.3803-1.2051.927-1.5855 1.5853-.3806.6585-.5813 1.4055-.5821 2.1661v18.7958c.0008.7606.2015 1.5076.5821 2.1661.3804.6583.9272 1.2049 1.5854 1.5853.0003.0001.0006.0003.0008.0004l16.4434 9.3981c.6592.3807 1.4071.5812 2.1683.5812.7613 0 1.5091-.2005 2.1684-.5812l.0014-.0008 16.4419-9.3973c.0003-.0001.0006-.0003.0009-.0004.6582-.3804 1.2049-.927 1.5854-1.5853.3805-.6585.5813-1.4056.5821-2.1663v-18.7954c-.0008-.7607-.2016-1.5077-.5821-2.1663-.3805-.6583-.9273-1.205-1.5855-1.5853-.0003-.0001-.0005-.0003-.0008-.0004l-16.4419-9.39732-.0014-.0008c-.6593-.380701-1.4071-.581124-2.1684-.581124z"/><path d="m21.7708 12.0905c.0986-.1686.3169-.2263.4874-.1287l20.0639 11.4794 20.064-11.4794c.1705-.0976.3887-.0399.4874.1287.0986.1687.0404.3845-.1302.4821l-20.2425 11.5816c-.1105.0632-.2468.0632-.3573 0l-20.2426-11.5816c-.1705-.0976-.2288-.3134-.1301-.4821z"/><path d="m42.3221 23.479c.1996 0 .3614.1582.3614.3533v23.1453c0 .1951-.1618.3533-.3614.3533s-.3614-.1582-.3614-.3533v-23.1453c0-.1951.1618-.3533.3614-.3533z"/></g></svg>