<svg width="200" height="169" xmlns="http://www.w3.org/2000/svg">

 <g>
  <title>background</title>
  <rect fill="none" id="canvas_background" height="171" width="202" y="-1" x="-1"/>
 </g>
 <g>
  <title>Layer 1</title>
  <circle id="svg_1" fill="#FF9900" r="60" cy="107" cx="63"/>
  <path id="svg_2" fill="black" d="m104.1306,17.4903c0.269,-0.4686 0.8654,-0.6294 1.3319,-0.3592l57.0495,33.0409c0.466,0.2702 0.626,0.8691 0.357,1.3377c-0.269,0.4686 -0.865,0.6294 -1.332,0.3592l-57.0488,-33.0409c-0.4666,-0.2702 -0.6267,-0.8691 -0.3576,-1.3377z" clip-rule="evenodd" fill-rule="evenodd"/>
  <path id="svg_3" fill="black" d="m126.502,3.87485c2.128,-1.22824 4.541,-1.87485 6.998,-1.87485c2.457,0 4.87,0.64661 6.998,1.87485c0.001,0.00039 0.001,0.00078 0.002,0.00117l45.5,26.00528c2.126,1.2278 3.892,2.9932 5.121,5.1191c1.228,2.126 1.876,4.5377 1.879,6.9933l0,52.0126c-0.003,2.4556 -0.651,4.8673 -1.879,6.9932c-1.229,2.1265 -2.995,3.8915 -5.121,5.1195l-0.004,0.002l-45.496,26.003c0,0 -0.001,0 -0.001,0.001c-2.128,1.228 -4.542,1.875 -6.999,1.875c-2.457,0 -4.871,-0.647 -6.999,-1.875c0,-0.001 -0.001,-0.001 -0.001,-0.001l-45.4961,-26.003l-0.0039,-0.002c-2.1262,-1.228 -3.8921,-2.993 -5.1208,-5.1195c-1.2286,-2.1259 -1.8767,-4.5376 -1.8792,-6.9932l0,-52.0126c0.0025,-2.4556 0.6506,-4.8673 1.8792,-6.9933c1.2287,-2.1259 2.9946,-3.8913 5.1208,-5.1191l0.0039,-0.0022l45.4961,-26.00308c0.001,-0.00039 0.001,-0.00078 0.002,-0.00117zm6.998,0.12555c-2.106,0 -4.176,0.55459 -6,1.60802l-0.004,0.00222l-45.496,26.00306c-0.0007,0.0004 -0.0014,0.0008 -0.002,0.0011c-1.8215,1.0524 -3.3345,2.5652 -4.3872,4.3867c-1.0531,1.8221 -1.6086,3.8892 -1.6108,5.9938l0,52.0094c0.0022,2.1046 0.5577,4.1716 1.6108,5.9938c1.0526,1.8214 2.5655,3.3345 4.3869,4.3865c0.0007,0 0.0015,0.001 0.0023,0.001l45.5,26.006c1.824,1.053 3.894,1.608 6,1.608c2.106,0 4.176,-0.555 6,-1.608l0.004,-0.003l45.496,-26.003c0.001,0 0.002,-0.001 0.002,-0.001c1.822,-1.052 3.335,-2.5651 4.387,-4.3865c1.053,-1.8223 1.609,-3.8895 1.611,-5.9943l0,-52.0084c-0.002,-2.1048 -0.558,-4.172 -1.611,-5.9943c-1.052,-1.8215 -2.565,-3.3343 -4.387,-4.3867c-0.001,-0.0003 -0.001,-0.0007 -0.002,-0.0011l-45.496,-26.00306l-0.004,-0.00222c-1.824,-1.05343 -3.894,-1.60802 -6,-1.60802z" clip-rule="evenodd" fill-rule="evenodd"/>
  <path id="svg_4" fill="black" d="m76.1328,35.4876c0.273,-0.4667 0.8768,-0.6262 1.3487,-0.3562l55.5185,31.7644l55.518,-31.7644c0.472,-0.27 1.076,-0.1105 1.349,0.3562c0.273,0.4667 0.112,1.064 -0.36,1.334l-56.013,32.0472c-0.306,0.1749 -0.682,0.1749 -0.988,0l-56.013,-32.0472c-0.4719,-0.27 -0.6332,-0.8673 -0.3602,-1.334z" clip-rule="evenodd" fill-rule="evenodd"/>
  <path id="svg_5" fill="black" d="m133,67c0.552,0 1,0.4376 1,0.9775l0,64.0455c0,0.539 -0.448,0.977 -1,0.977c-0.552,0 -1,-0.438 -1,-0.977l0,-64.0455c0,-0.5399 0.448,-0.9775 1,-0.9775z" clip-rule="evenodd" fill-rule="evenodd"/>
 </g>
</svg>