<svg fill="none" height="16" viewBox="0 0 16 16" width="16" xmlns="http://www.w3.org/2000/svg"><path clip-rule="evenodd" d="m8 16c4.4183 0 8-3.5817 8-8 0-4.41828-3.5817-8-8-8-4.41828 0-8 3.58172-8 8 0 4.4183 3.58172 8 8 8z" fill="#f90" fill-rule="evenodd"/><path d="m7.26154 6.4551h1.47692v6.5449h-1.47692zm.73846-1.55251c-.28718 0-.5282-.09133-.72308-.27398-.18461-.18264-.27692-.40588-.27692-.66971 0-.26382.09231-.48706.27692-.66971.19488-.19279.4359-.28919.72308-.28919s.52308.09132.70769.27397c.19487.1725.29231.39067.29231.65449 0 .27397-.09744.50736-.29231.70015-.18461.18265-.42051.27398-.70769.27398z" fill="#fff"/></svg>