<svg height="40" viewBox="0 0 40 40" width="40" xmlns="http://www.w3.org/2000/svg"><g fill="#7c7c7c"><path d="m16.171875 20c0 2.113281 1.714844 3.828125 3.828125 3.828125s3.828125-1.714844 3.828125-3.828125-1.714844-3.828125-3.828125-3.828125-3.828125 1.714844-3.828125 3.828125zm0 0"/><path d="m11.046875 13.226562c.183594-.5.476563-.949218.859375-1.320312.371094-.382812.820312-.675781 1.320312-.859375.40625-.15625 1.011719-.34375 2.132813-.394531 1.210937-.054688 1.574219-.066406 4.640625-.066406s3.429688.011718 4.640625.066406c1.121094.050781 1.726563.238281 2.132813.394531.5.183594.949218.476563 1.320312.859375.382812.371094.675781.820312.859375 1.320312.15625.40625.34375 1.011719.394531 2.132813.054688 1.210937.066406 1.574219.066406 4.640625s-.011718 3.429688-.066406 4.640625c-.050781 1.121094-.238281 1.726563-.394531 2.132813-.183594.5-.476563.949218-.859375 1.320312-.371094.382812-.820312.675781-1.320312.859375-.40625.15625-1.011719.34375-2.132813.394531-1.210937.054688-1.574219.066406-4.640625.066406s-3.429688-.011718-4.640625-.066406c-1.121094-.050781-1.726563-.238281-2.132813-.394531-1-.386719-1.792968-1.179687-2.179687-2.179687-.15625-.40625-.34375-1.011719-.394531-2.132813-.054688-1.210937-.066406-1.574219-.066406-4.640625s.011718-3.429688.066406-4.640625c.050781-1.121094.238281-1.726563.394531-2.132813zm8.953125 12.671876c3.257812 0 5.898438-2.640626 5.898438-5.898438s-2.640626-5.898438-5.898438-5.898438-5.898438 2.640626-5.898438 5.898438 2.640626 5.898438 5.898438 5.898438zm-6.128906-10.652344c.757812 0 1.375-.617188 1.375-1.375 0-.761719-.617188-1.378906-1.375-1.378906-.761719 0-1.378906.617187-1.378906 1.378906 0 .757812.617187 1.375 1.378906 1.375zm0 0"/><path d="m20 0c11.042969 0 20 8.957031 20 20s-8.957031 20-20 20-20-8.957031-20-20 8.957031-20 20-20zm-11.414062 24.734375c.054687 1.222656.25 2.058594.53125 2.789063.597656 1.542968 1.816406 2.761718 3.359374 3.359374.730469.28125 1.566407.476563 2.789063.53125 1.222656.058594 1.613281.070313 4.734375.070313 3.117188 0 3.511719-.011719 4.734375-.070313 1.222656-.054687 2.058594-.25 2.789063-.53125.765624-.289062 1.460937-.742187 2.03125-1.328124.585937-.570313 1.039062-1.265626 1.328124-2.03125.28125-.730469.476563-1.566407.53125-2.789063.058594-1.222656.070313-1.617187.070313-4.734375s-.011719-3.511719-.070313-4.734375c-.054687-1.222656-.25-2.058594-.53125-2.789063-.289062-.765624-.742187-1.460937-1.328124-2.03125-.570313-.585937-1.265626-1.039062-2.03125-1.328124-.730469-.28125-1.566407-.476563-2.789063-.53125-1.222656-.058594-1.617187-.070313-4.734375-.070313s-3.511719.011719-4.734375.070313c-1.222656.054687-2.058594.25-2.789063.53125-.765624.289062-1.460937.742187-2.035156 1.328124-.582031.570313-1.035156 1.265626-1.324218 2.03125-.28125.730469-.476563 1.566407-.53125 2.789063-.058594 1.222656-.070313 1.617187-.070313 4.734375s.011719 3.511719.070313 4.734375zm0 0"/></g></svg>