<?xml version="1.0" encoding="UTF-8"?>
<svg xmlns="http://www.w3.org/2000/svg" xmlns:xlink="http://www.w3.org/1999/xlink" width="40px" height="40px" viewBox="0 0 40 40" version="1.1">
<g id="surface1">
<path style=" stroke:none;fill-rule:nonzero;fill:rgb(48.627451%,48.627451%,48.627451%);fill-opacity:1;" d="M 16.171875 20 C 16.171875 22.113281 17.886719 23.828125 20 23.828125 C 22.113281 23.828125 23.828125 22.113281 23.828125 20 C 23.828125 17.886719 22.113281 16.171875 20 16.171875 C 17.886719 16.171875 16.171875 17.886719 16.171875 20 Z M 16.171875 20 "/>
<path style=" stroke:none;fill-rule:nonzero;fill:rgb(48.627451%,48.627451%,48.627451%);fill-opacity:1;" d="M 11.046875 13.226562 C 11.230469 12.726562 11.523438 12.277344 11.90625 11.90625 C 12.277344 11.523438 12.726562 11.230469 13.226562 11.046875 C 13.632812 10.890625 14.238281 10.703125 15.359375 10.652344 C 16.570312 10.597656 16.933594 10.585938 20 10.585938 C 23.066406 10.585938 23.429688 10.597656 24.640625 10.652344 C 25.761719 10.703125 26.367188 10.890625 26.773438 11.046875 C 27.273438 11.230469 27.722656 11.523438 28.09375 11.90625 C 28.476562 12.277344 28.769531 12.726562 28.953125 13.226562 C 29.109375 13.632812 29.296875 14.238281 29.347656 15.359375 C 29.402344 16.570312 29.414062 16.933594 29.414062 20 C 29.414062 23.066406 29.402344 23.429688 29.347656 24.640625 C 29.296875 25.761719 29.109375 26.367188 28.953125 26.773438 C 28.769531 27.273438 28.476562 27.722656 28.09375 28.09375 C 27.722656 28.476562 27.273438 28.769531 26.773438 28.953125 C 26.367188 29.109375 25.761719 29.296875 24.640625 29.347656 C 23.429688 29.402344 23.066406 29.414062 20 29.414062 C 16.933594 29.414062 16.570312 29.402344 15.359375 29.347656 C 14.238281 29.296875 13.632812 29.109375 13.226562 28.953125 C 12.226562 28.566406 11.433594 27.773438 11.046875 26.773438 C 10.890625 26.367188 10.703125 25.761719 10.652344 24.640625 C 10.597656 23.429688 10.585938 23.066406 10.585938 20 C 10.585938 16.933594 10.597656 16.570312 10.652344 15.359375 C 10.703125 14.238281 10.890625 13.632812 11.046875 13.226562 Z M 20 25.898438 C 23.257812 25.898438 25.898438 23.257812 25.898438 20 C 25.898438 16.742188 23.257812 14.101562 20 14.101562 C 16.742188 14.101562 14.101562 16.742188 14.101562 20 C 14.101562 23.257812 16.742188 25.898438 20 25.898438 Z M 13.871094 15.246094 C 14.628906 15.246094 15.246094 14.628906 15.246094 13.871094 C 15.246094 13.109375 14.628906 12.492188 13.871094 12.492188 C 13.109375 12.492188 12.492188 13.109375 12.492188 13.871094 C 12.492188 14.628906 13.109375 15.246094 13.871094 15.246094 Z M 13.871094 15.246094 "/>
<path style=" stroke:none;fill-rule:nonzero;fill:rgb(48.627451%,48.627451%,48.627451%);fill-opacity:1;" d="M 20 0 C 31.042969 0 40 8.957031 40 20 C 40 31.042969 31.042969 40 20 40 C 8.957031 40 0 31.042969 0 20 C 0 8.957031 8.957031 0 20 0 Z M 8.585938 24.734375 C 8.640625 25.957031 8.835938 26.792969 9.117188 27.523438 C 9.714844 29.066406 10.933594 30.285156 12.476562 30.882812 C 13.207031 31.164062 14.042969 31.359375 15.265625 31.414062 C 16.488281 31.472656 16.878906 31.484375 20 31.484375 C 23.117188 31.484375 23.511719 31.472656 24.734375 31.414062 C 25.957031 31.359375 26.792969 31.164062 27.523438 30.882812 C 28.289062 30.59375 28.984375 30.140625 29.554688 29.554688 C 30.140625 28.984375 30.59375 28.289062 30.882812 27.523438 C 31.164062 26.792969 31.359375 25.957031 31.414062 24.734375 C 31.472656 23.511719 31.484375 23.117188 31.484375 20 C 31.484375 16.882812 31.472656 16.488281 31.414062 15.265625 C 31.359375 14.042969 31.164062 13.207031 30.882812 12.476562 C 30.59375 11.710938 30.140625 11.015625 29.554688 10.445312 C 28.984375 9.859375 28.289062 9.40625 27.523438 9.117188 C 26.792969 8.835938 25.957031 8.640625 24.734375 8.585938 C 23.511719 8.527344 23.117188 8.515625 20 8.515625 C 16.882812 8.515625 16.488281 8.527344 15.265625 8.585938 C 14.042969 8.640625 13.207031 8.835938 12.476562 9.117188 C 11.710938 9.40625 11.015625 9.859375 10.441406 10.445312 C 9.859375 11.015625 9.40625 11.710938 9.117188 12.476562 C 8.835938 13.207031 8.640625 14.042969 8.585938 15.265625 C 8.527344 16.488281 8.515625 16.882812 8.515625 20 C 8.515625 23.117188 8.527344 23.511719 8.585938 24.734375 Z M 8.585938 24.734375 "/>
</g>
</svg>
