<svg fill="none" height="60" viewBox="0 0 60 60" width="60" xmlns="http://www.w3.org/2000/svg"><g fill="#7c7c7c"><path d="m24.2578 30c0 3.1714 2.5708 5.7422 5.7422 5.7422s5.7422-2.5708 5.7422-5.7422-2.5708-5.7422-5.7422-5.7422-5.7422 2.5708-5.7422 5.7422z"/><path d="m16.571 19.8403c.2761-.748.7164-1.425 1.2886-1.9807.5558-.5722 1.2323-1.0126 1.9808-1.2886.607-.2358 1.5189-.5164 3.1984-.5929 1.8169-.0828 2.3616-.1007 6.9612-.1007 4.6001 0 5.1448.0174 6.9612.1003 1.6795.0769 2.5919.3575 3.1984.5933.7485.276 1.4255.7164 1.9808 1.2886.5722.5557 1.0125 1.2323 1.289 1.9807.2358.607.5164 1.5193.5928 3.1989.0829 1.8164.1007 2.3611.1007 6.9612 0 4.5996-.0178 5.1443-.1007 6.9612-.0764 1.6795-.357 2.5914-.5928 3.1984-.2765.7484-.7164 1.425-1.2886 1.9807-.5557.5722-1.2323 1.0126-1.9807 1.2886-.607.2362-1.5194.5168-3.1989.5933-1.8164.0828-2.3607.1002-6.9607.1002-4.6006 0-5.1453-.0174-6.9613-.1002-1.6795-.0765-2.5918-.3571-3.1988-.5933-1.5024-.5795-2.6898-1.7669-3.2694-3.2693-.2357-.607-.5163-1.5189-.5932-3.1984-.0829-1.8169-.1003-2.3616-.1003-6.9612 0-4.6001.0174-5.1448.1003-6.9612.0764-1.6796.357-2.5919.5932-3.1989zm13.429 19.0054c4.8857 0 8.8463-3.9601 8.8463-8.8458s-3.9606-8.8458-8.8463-8.8458c-4.8853 0-8.8458 3.9601-8.8458 8.8458s3.9605 8.8458 8.8458 8.8458zm-9.1956-15.9741c1.1417 0 2.0673-.9256 2.0673-2.0672 0-1.1417-.9256-2.0673-2.0673-2.0673-1.1416 0-2.0672.9256-2.0672 2.0673.0004 1.1416.9256 2.0672 2.0672 2.0672z"/><path d="m30 0c16.566 0 30 13.434 30 30s-13.434 30-30 30-30-13.434-30-30 13.434-30 30-30zm-17.1227 37.1022c.0834 1.8338.375 3.0858.8007 4.1817.8949 2.314 2.7241 4.1432 5.0381 5.0381 1.0955.4257 2.3479.7169 4.1812.8007 1.837.0837 2.4239.1039 7.1022.1039 4.6788 0 5.2652-.0202 7.1027-.1039 1.8333-.0838 3.0858-.375 4.1812-.8007 1.1499-.4326 2.1909-1.1105 3.0515-1.9871.8761-.8602 1.5541-1.9016 1.9867-3.051.4257-1.0955.7173-2.3479.8006-4.1812.0847-1.8375.1044-2.4244.1044-7.1027s-.0197-5.2652-.1039-7.1022c-.0834-1.8338-.3745-3.0858-.8002-4.1817-.4326-1.1494-1.111-2.1908-1.9876-3.051-.8602-.8766-1.9016-1.5545-3.051-1.9871-1.0959-.4257-2.3479-.7169-4.1817-.8007-1.837-.0837-2.4239-.1039-7.1022-.1039s-5.2652.0202-7.1022.1044c-1.8338.0833-3.0858.3745-4.1817.7997-1.1494.4326-2.1908 1.111-3.0514 1.9876-.8762.8606-1.5546 1.9016-1.9867 3.051-.4262 1.0959-.7173 2.3479-.8011 4.1817-.0838 1.837-.1035 2.4239-.1035 7.1022s.0197 5.2652.1039 7.1022z"/></g></svg>