<svg height="40" viewBox="0 0 40 40" width="40" xmlns="http://www.w3.org/2000/svg"><path d="m20 0c-11.046875 0-20 8.953125-20 20s8.953125 20 20 20 20-8.953125 20-20-8.953125-20-20-20zm10.144531 22.164062c.933594.910157 1.917969 1.765626 2.753907 2.769532.371093.445312.722656.90625.988281 1.421875.378906.738281.035156 1.546875-.625 1.589843h-4.09375c-1.058594.085938-1.902344-.339843-2.613281-1.0625-.566407-.578124-1.089844-1.195312-1.636719-1.789062-.222657-.246094-.457031-.476562-.738281-.65625-.558594-.363281-1.042969-.253906-1.363282.332031-.328125.59375-.402344 1.25-.433594 1.910157-.042968.964843-.335937 1.21875-1.304687 1.265624-2.070313.097657-4.035156-.21875-5.863281-1.261718-1.609375-.921875-2.859375-2.222656-3.945313-3.695313-2.117187-2.867187-3.738281-6.015625-5.195312-9.257812-.324219-.730469-.085938-1.117188.71875-1.132813 1.335937-.027344 2.675781-.023437 4.011719-.003906.542968.011719.90625.320312 1.113281.835938.722656 1.777343 1.609375 3.46875 2.71875 5.039062.296875.417969.597656.832031 1.027343 1.128906.476563.324219.835938.21875 1.0625-.3125.140626-.335937.203126-.699218.234376-1.058594.105468-1.234374.121093-2.472656-.066407-3.703124-.113281-.769532-.546875-1.269532-1.3125-1.414063-.394531-.074219-.335937-.21875-.144531-.441406.328125-.386719.636719-.625 1.257812-.625h4.628907c.730469.140625.894531.46875.992187 1.203125l.003906 5.144531c-.007812.285156.144532 1.128906.652344 1.3125.410156.136719.679688-.191406.925782-.449219 1.109374-1.179687 1.902343-2.570312 2.609374-4.007812.3125-.636719.582032-1.292969.84375-1.949219.195313-.488281.496094-.726563 1.046876-.71875l4.457031.003906c.132812 0 .265625.003907.394531.023438.753906.128906.957031.453125.726562 1.1875-.367187 1.148437-1.078124 2.109375-1.773437 3.070312-.742187 1.03125-1.539063 2.023438-2.273437 3.058594-.679688.945313-.625 1.421875.214843 2.242187zm0 0" fill="#7c7c7c"/></svg>