<?xml version="1.0" encoding="UTF-8"?>
<svg xmlns="http://www.w3.org/2000/svg" xmlns:xlink="http://www.w3.org/1999/xlink" width="40px" height="40px" viewBox="0 0 40 40" version="1.1">
<g id="surface1">
<path style=" stroke:none;fill-rule:nonzero;fill:rgb(48.627451%,48.627451%,48.627451%);fill-opacity:1;" d="M 20 0 C 8.953125 0 0 8.953125 0 20 C 0 31.046875 8.953125 40 20 40 C 31.046875 40 40 31.046875 40 20 C 40 8.953125 31.046875 0 20 0 Z M 30.144531 22.164062 C 31.078125 23.074219 32.0625 23.929688 32.898438 24.933594 C 33.269531 25.378906 33.621094 25.839844 33.886719 26.355469 C 34.265625 27.09375 33.921875 27.902344 33.261719 27.945312 L 29.167969 27.945312 C 28.109375 28.03125 27.265625 27.605469 26.554688 26.882812 C 25.988281 26.304688 25.464844 25.6875 24.917969 25.09375 C 24.695312 24.847656 24.460938 24.617188 24.179688 24.4375 C 23.621094 24.074219 23.136719 24.183594 22.816406 24.769531 C 22.488281 25.363281 22.414062 26.019531 22.382812 26.679688 C 22.339844 27.644531 22.046875 27.898438 21.078125 27.945312 C 19.007812 28.042969 17.042969 27.726562 15.214844 26.683594 C 13.605469 25.761719 12.355469 24.460938 11.269531 22.988281 C 9.152344 20.121094 7.53125 16.972656 6.074219 13.730469 C 5.75 13 5.988281 12.613281 6.792969 12.597656 C 8.128906 12.570312 9.46875 12.574219 10.804688 12.59375 C 11.347656 12.605469 11.710938 12.914062 11.917969 13.429688 C 12.640625 15.207031 13.527344 16.898438 14.636719 18.46875 C 14.933594 18.886719 15.234375 19.300781 15.664062 19.597656 C 16.140625 19.921875 16.5 19.816406 16.726562 19.285156 C 16.867188 18.949219 16.929688 18.585938 16.960938 18.226562 C 17.066406 16.992188 17.082031 15.753906 16.894531 14.523438 C 16.78125 13.753906 16.347656 13.253906 15.582031 13.109375 C 15.1875 13.035156 15.246094 12.890625 15.4375 12.667969 C 15.765625 12.28125 16.074219 12.042969 16.695312 12.042969 L 21.324219 12.042969 C 22.054688 12.183594 22.21875 12.511719 22.316406 13.246094 L 22.320312 18.390625 C 22.3125 18.675781 22.464844 19.519531 22.972656 19.703125 C 23.382812 19.839844 23.652344 19.511719 23.898438 19.253906 C 25.007812 18.074219 25.800781 16.683594 26.507812 15.246094 C 26.820312 14.609375 27.089844 13.953125 27.351562 13.296875 C 27.546875 12.808594 27.847656 12.570312 28.398438 12.578125 L 32.855469 12.582031 C 32.988281 12.582031 33.121094 12.585938 33.25 12.605469 C 34.003906 12.734375 34.207031 13.058594 33.976562 13.792969 C 33.609375 14.941406 32.898438 15.902344 32.203125 16.863281 C 31.460938 17.894531 30.664062 18.886719 29.929688 19.921875 C 29.25 20.867188 29.304688 21.34375 30.144531 22.164062 Z M 30.144531 22.164062 "/>
</g>
</svg>
