<svg fill="none" height="60" viewBox="0 0 60 60" width="60" xmlns="http://www.w3.org/2000/svg"><path d="m30 0c-16.568 0-30 13.4314-30 30s13.432 30 30 30 30-13.4314 30-30-13.432-30-30-30zm15.2176 33.2446c1.3983 1.3657 2.8775 2.6511 4.1328 4.158.5561.6666 1.0803 1.3559 1.4793 2.1311.5696 1.1055.0552 2.3178-.9343 2.3834l-6.146-.0012c-1.5874.1314-2.8506-.5088-3.9155-1.5941-.8502-.8648-1.6389-1.7886-2.4577-2.6829-.3346-.3671-.6869-.7127-1.1067-.9846-.8379-.545-1.5659-.3781-2.0459.4972-.4892.8906-.6009 1.8777-.6475 2.869-.0669 1.4492-.504 1.8279-1.9581 1.896-3.1071.1455-6.0552-.3259-8.7953-1.8924-2.4172-1.3816-4.2881-3.3317-5.9184-5.5396-3.1746-4.304-5.6059-9.0279-7.79044-13.8875-.49166-1.0944-.13197-1.68 1.07544-1.7027 2.0059-.0386 4.0118-.0337 6.0178-.0018.8163.0129 1.3565.48 1.6701 1.2503 1.084 2.667 2.4129 5.2045 4.0782 7.5579.4438.6267.8968 1.2515 1.5419 1.6941.712.4886 1.2546.3271 1.5904-.4677.2148-.5052.3075-1.0454.3541-1.5867.1596-1.8544.1787-3.7081-.0976-5.555-.1718-1.1558-.8218-1.9022-1.974-2.1207-.5868-.1111-.5008-.3284-.2154-.6636.4953-.5794.9594-.9379 1.8868-.9379l6.9441-.0012c1.0944.2148 1.3399.7059 1.4885 1.8083l.0061 7.7168c-.0129.4266.2142 1.6911.9803 1.9703.6138.2026 1.0189-.2897 1.3859-.6782 1.6653-1.7672 2.8518-3.8529 3.9143-6.0117.469-.952.8735-1.9372 1.2663-2.9242.2922-.7298.7464-1.0889 1.5701-1.0766l6.6869.008c.197 0 .3971.0018.5923.0356 1.127.1927 1.4357.6776 1.0871 1.777-.5488 1.7272-1.615 3.166-2.6572 4.6085-1.1171 1.5443-2.3086 3.0346-3.4146 4.5857-1.0165 1.4179-.9361 2.1318.3259 3.3631z" fill="#7c7c7c"/></svg>