<svg width="16" height="16" xmlns="http://www.w3.org/2000/svg"><path d="M2 3.545L7.833 1l5.834 2.545v.637C13.667 11.757 7.833 15 7.833 15S2 11.757 2 4.182v-.637zm4.833 2.023l-1.33-1.943c-1.475.356-1.46 1.617-1.46 1.617s-.055.98.468 1.765c.523.785.745 1.129 1.388 1.772.643.642.98.857 1.766 1.38.785.523 1.763.465 1.763.465s1.214.001 1.613-1.464L9.125 7.844s-.469.653-.546.778c-.087.141-.3.295-.53.154-.231-.141-.675-.408-1.206-.94-.53-.532-.806-.982-.948-1.212-.14-.231.03-.454.147-.538.118-.083.79-.518.79-.518h.001z" fill="rgba(255, 255, 255, .45)"/></svg>