<svg width="100" height="43" fill="none" xmlns="http://www.w3.org/2000/svg"><g clip-path="url(#clip0)"><path d="M57.266 34c1.898 0 3.455-.888 4.547-2.54l.205 2.199h3.728V10.1h-4.028v8.508c-1.01-1.53-2.513-2.335-4.275-2.335-3.892 0-6.61 3.291-6.61 8.986 0 5.613 2.636 8.74 6.433 8.74zm24.786-1.489v-3.29c-1.256.846-3.36 1.597-5.326 1.597-2.95 0-4.07-1.393-4.233-4.234h9.723V24.44c0-5.927-2.608-8.166-6.637-8.166-4.916 0-7.252 3.755-7.252 8.918 0 5.927 2.91 8.808 8.071 8.808 2.568 0 4.466-.683 5.654-1.489zM38.624 21.422c.752-.915 1.926-1.693 3.387-1.693 1.42 0 2.062.614 2.062 1.898V33.66h4.03V21.218c0-3.387-1.353-4.876-4.644-4.876-2.404 0-3.824.888-4.643 1.694h-.205l-.096-1.42h-3.933v17.043h4.029V21.422h.014zm-7.32.615c0-4.138-2.102-5.695-6.377-5.695-2.65 0-4.78 1.12-5.995 1.994v3.496c1.284-1.052 3.25-2.267 5.53-2.267 1.926 0 2.814.683 2.814 2.513v1.079h-.642c-6.173 0-8.918 1.994-8.918 5.558 0 3.291 2.103 5.19 5.217 5.19 2.376 0 3.387-.779 4.165-1.598h.164c.027.437.164 1.01.3 1.352h3.934a42.756 42.756 0 0 1-.205-4.166v-7.456h.014zm63.148 11.622H99l-5.558-8.782 4.807-8.262H94.22l-2.909 5.149-3.25-5.149H83.5l5.148 8.167-5.353 8.877h4.097l3.428-5.764 3.632 5.764zM58.454 19.456c2.171 0 3.25 1.734 3.25 5.654 0 3.96-1.147 5.694-3.428 5.694-2.199 0-3.291-1.693-3.291-5.558.014-4.028 1.16-5.79 3.469-5.79zm17.057 0c1.994 0 2.608 1.666 2.608 3.796v.342h-5.626c.095-2.718 1.079-4.138 3.018-4.138zM27.276 29.589c-.505.751-1.461 1.352-2.882 1.352-1.693 0-2.54-.983-2.54-2.472 0-1.966 1.393-2.65 4.848-2.65h.574v3.77z" fill="#000"/><path d="M11.748 29.657v4.002H7.651v-6.747l-7.73-16.81h4.275l6.023 13.15c1.16 2.513 1.53 3.387 1.53 6.405zM19.45 10.101l-5.025 11.39H10.26l5.026-11.39h4.165z" fill="#FC3F1D"/></g><defs><clipPath id="clip0"><path fill="#fff" d="M0 0h100v43H0z"/></clipPath></defs></svg>