<svg width="16" height="16" xmlns="http://www.w3.org/2000/svg"><path d="M10.874.532a8 8 0 00-9.947 11.21l-.27.638c-.155.386-.282.745-.37 1.048a3.75 3.75 0 00-.138.68c-.057.613.033 1.12.666 1.567.673.475 2.21.056 3.53-.557a8 8 0 0011.108-10.03c.645-1.875.7-3.714-.073-4.478-.405-.402-.842-.521-1.438-.55l-.233-.007-.27.003-.355.022a9.8 9.8 0 00-2.21.454zm3.452 1.143c-.072-.07-.285-.116-.6-.123l-.27.003c-1.27.052-3.636.624-5.345 2.315-.356.352-.682.715-.973 1.082l-.212.275-2.073-.152-.086.001-.083.015a.494.494 0 00-.152.071l-.065.054-2.944 2.912-.04.053-.025.059a.248.248 0 00.067.238c.07.07.166.103.26.098l.07-.012.066-.027.655-.344c.639-.323 1.092-.514 1.36-.57.17-.036.305-.06.428-.07l.12-.003.118.008c.159.018.322.071.546.167l.148.066.178.087.08.044-.042.188c-.162.804-.05 1.482.38 1.907.303.3.733.444 1.246.446l.174-.005.241-.022c.164-.021.335-.054.51-.098.086.141.16.278.221.41.235.504.28.713.22 1.093l-.05.252c-.044.206-.17.523-.378.951l-.095.19-.218.422-.233.43-.027.067a.33.33 0 00.086.325c.05.049.114.073.178.074l.063-.008.04-.014.039-.021.034-.029 2.944-2.911.055-.065a.484.484 0 00.087-.232v-.085L10.86 8.9l.316-.246c.315-.254.627-.532.931-.833 2.33-2.303 2.558-5.812 2.22-6.147zM4.292 10.309c-.024-.054-.037-.083-.052-.081-.512.065-.675.118-1.033.473-.462.457-1.82 3.54-1.526 3.748.294.208 3.238-1.274 3.62-1.653.21-.208.4-.404.486-1.09.002-.011-.027-.023-.081-.046-.141-.06-.454-.19-.849-.568-.385-.37-.508-.651-.565-.783zm5.878-4.423a1.3 1.3 0 111.838-1.838 1.3 1.3 0 01-1.838 1.838z" fill="#777FA8" fill-rule="evenodd"/></svg>