<svg width="12" height="12" fill="none" xmlns="http://www.w3.org/2000/svg"><path fill-rule="evenodd" clip-rule="evenodd" d="M5.402.07a.912.912 0 00-.297.2V.269l-.585.59a.912.912 0 01-.793.258l-.82-.133a.912.912 0 00-1.048.76l-.127.82a.912.912 0 01-.49.676L.5 3.614a.912.912 0 00-.4 1.23l.38.739a.912.912 0 010 .834l-.38.738a.912.912 0 00.4 1.23l.743.375a.912.912 0 01.49.676l.126.82a.912.912 0 001.047.76l.82-.133a.912.912 0 01.793.258l.585.59a.912.912 0 001.295 0l.584-.59a.913.913 0 01.793-.258l.82.133a.91.91 0 001.047-.761l.127-.82a.912.912 0 01.49-.675l.74-.374a.912.912 0 00.4-1.231l-.38-.738a.912.912 0 010-.834l.38-.738a.914.914 0 00-.4-1.231l-.74-.374a.912.912 0 01-.49-.676l-.127-.82a.91.91 0 00-1.047-.76l-.82.133a.913.913 0 01-.793-.258L6.4.269A.912.912 0 005.402.07zm3.345 4.355a.75.75 0 00-1.326-.405L5.18 6.745l-1.138-1.19a.75.75 0 10-1.084 1.037l1.723 1.8a.75.75 0 001.12-.042L8.58 4.974a.75.75 0 00.167-.549z" fill="#8BB4DD"/></svg>