<svg width="12" height="12" fill="none" xmlns="http://www.w3.org/2000/svg"><path d="M5.354.27a.912.912 0 011.295 0l.584.589a.913.913 0 00.794.258l.819-.133a.91.91 0 011.047.76l.127.82a.912.912 0 00.49.676l.74.374a.912.912 0 01.401 1.231l-.38.738a.912.912 0 000 .834l.38.738a.912.912 0 01-.4 1.231l-.74.374a.912.912 0 00-.491.675l-.127.82a.912.912 0 01-1.047.761l-.82-.133a.912.912 0 00-.793.258l-.584.59a.912.912 0 01-1.295 0l-.585-.59a.912.912 0 00-.793-.258l-.82.133a.912.912 0 01-1.047-.76l-.126-.82a.912.912 0 00-.49-.676L.75 8.386a.912.912 0 01-.4-1.231l.38-.738a.912.912 0 000-.834l-.38-.738a.912.912 0 01.4-1.231l.741-.374a.912.912 0 00.49-.675l.127-.82A.912.912 0 013.157.984l.819.133a.912.912 0 00.793-.258l.585-.59z" fill="#1F6AED"/><path fill-rule="evenodd" clip-rule="evenodd" d="M8.727 3.919a.75.75 0 01.102 1.055L6.051 8.35a.75.75 0 01-1.12.042l-1.723-1.8a.75.75 0 111.084-1.037l1.138 1.19L7.67 4.02a.75.75 0 011.057-.102z" fill="#fff"/></svg>