<svg width="16" height="16" fill="none" xmlns="http://www.w3.org/2000/svg"><path fill-rule="evenodd" clip-rule="evenodd" d="M1.406 2.728c0-.724.585-1.309 1.31-1.31 2.242 0 6.618-.004 6.976-.004.482 0 .878.396.878.878 0 .483-.39.873-.872.873H6.336a8.74 8.74 0 01-1.964-.224l-.344-.08v.257a8.75 8.75 0 011.543 1.229l8.614 8.613a.875.875 0 11-1.237 1.238L4.334 5.584a8.75 8.75 0 01-1.228-1.542l-.257-.001.08.344a8.74 8.74 0 01.223 1.964v3.362c0 .482-.39.872-.873.872a.882.882 0 01-.878-.878l.005-6.977z" fill="rgba(255, 255, 255, .45)"/></svg>