<svg width="80" height="40" viewBox="0 0 80 40" xmlns="http://www.w3.org/2000/svg"><path fill-rule="evenodd" clip-rule="evenodd" d="M17.746 31a2 2 0 0 1-2 2h-2.662a2 2 0 0 1-2-2v-3.94L6.25 16.545a2 2 0 0 1 1.817-2.835h2.772a2 2 0 0 1 1.818 1.166l1.815 3.957 1.73-3.93a2 2 0 0 1 1.83-1.193h2.707a2 2 0 0 1 1.83 2.806l-.71 1.614a8.295 8.295 0 0 1 2.444-.372c1.556 0 3.179.27 4.408 1.322l.038.033a2 2 0 0 1 1.824-1.179h2.552c.314 0 .612.073.877.202a6.957 6.957 0 0 1 2.335-.378c1.324 0 2.736.297 3.763 1.388.255.27.46.563.626.872 1.136-1.486 2.794-2.304 4.675-2.304.263 0 .52.018.772.053V15.71a2 2 0 0 1 2-2h2.618a2 2 0 0 1 2 2v3.597c1.137-1.035 2.636-1.593 4.38-1.593 1.244 0 2.507.262 3.585.971a2 2 0 0 1 1.563-.751h2.948a2 2 0 0 1 1.69.932l.328.517.245-.434a2 2 0 0 1 1.74-1.015h2.619a2 2 0 0 1 1.728 3.006l-2.513 4.318 2.959 4.672a2 2 0 0 1-1.69 3.07h-2.948a2 2 0 0 1-1.693-.935l-.612-.972-.552.929a2 2 0 0 1-1.72.978h-2.661a2 2 0 0 1-1.133-.352c-.947.358-2.076.572-3.355.572-1.87 0-3.633-.486-4.976-1.7A2 2 0 0 1 50.792 33h-2.42c-.327 0-.636-.079-.91-.218a5.426 5.426 0 0 1-2.17.438c-1.548 0-2.956-.556-4.035-1.61A2 2 0 0 1 39.352 33h-2.618a2 2 0 0 1-1.771-1.07A2 2 0 0 1 33.192 33h-2.618a1.99 1.99 0 0 1-1.001-.268 2 2 0 0 1-1.001.268H26.02c-.296 0-.582-.065-.84-.185-.638.227-1.356.339-2.174.339-1.416 0-2.802-.437-3.844-1.445-.744-.72-1.208-1.631-1.416-2.635V31zm-2.606-5.898a34.444 34.444 0 0 0-.384-.856L10.84 15.71H8.068l5.016 10.912V31h2.662v-2.596c0-1.573-.156-2.252-.606-3.302zm2.344-2l3.256-7.392h-2.706l-3.256 7.392h2.706zm3.283 2.188c-.78.605-1.15 1.447-1.15 2.498 0 2.134 1.365 3.366 3.389 3.366h.071c.33-.004.62-.031.875-.077h.005c.884-.161 1.36-.548 1.746-.948l.009-.009h.11l.012.117c.023.184.067.388.117.56.022.075.046.145.069.203h2.552a27.829 27.829 0 0 1-.132-2.706v-4.84c0-2.684-1.364-3.696-4.136-3.696a6.31 6.31 0 0 0-1.855.283 7.096 7.096 0 0 0-2.04 1.015v2.266c.176-.143.37-.29.582-.434.16-.11.331-.218.51-.32.283-.16.587-.306.909-.425.185-.068.377-.127.574-.173a4.367 4.367 0 0 1 1.012-.122c.597 0 1.039.1 1.339.332.024.019.047.038.069.058.283.26.418.66.418 1.238v.704h-.418c-1.432 0-2.58.166-3.463.485a5.44 5.44 0 0 0-.329.13 3.98 3.98 0 0 0-.845.495zm5.055.628h-.418c-.632.002-1.156.039-1.582.121-.487.094-.846.246-1.093.47-.293.265-.427.633-.427 1.125 0 .748.329 1.3.986 1.511.193.062.414.095.664.095.274 0 .52-.035.741-.096.447-.125.785-.36 1.019-.639.04-.047.076-.096.11-.145v-2.442zm7.37-2.86c.056-.068.115-.135.178-.2a2.98 2.98 0 0 1 1.19-.764 2.617 2.617 0 0 1 .832-.136c.924 0 1.342.396 1.342 1.232V31h2.618v-8.074c0-2.2-.88-3.168-3.014-3.168-.456 0-.857.049-1.21.13a4.297 4.297 0 0 0-.417.12 3.566 3.566 0 0 0-1.377.84l-.01.01h-.132l-.066-.924h-2.552V31h2.618v-7.942zm8.16 4.66c.553 2.272 2.02 3.502 3.94 3.502.247 0 .484-.023.713-.068.124-.025.245-.056.364-.094.751-.24 1.385-.743 1.87-1.488l.133 1.43h2.42V15.71h-2.618v5.522c-.506-.758-1.192-1.246-2-1.432a3.453 3.453 0 0 0-.772-.086c-1.98 0-3.487 1.306-4.05 3.644a9.357 9.357 0 0 0-.24 2.186c0 .805.083 1.532.24 2.174zm6.538-4.506c-.194-.582-.488-.978-.882-1.203a1.876 1.876 0 0 0-.946-.227c-.069 0-.135.002-.2.007-1.363.1-2.044 1.257-2.044 3.755 0 2.405.647 3.515 1.961 3.602.057.004.114.006.173.006.452 0 .835-.105 1.15-.325.362-.254.633-.659.812-1.23.173-.554.26-1.263.26-2.141 0-.935-.095-1.678-.284-2.244zm4.902 4.743c.676 2.193 2.375 3.265 4.908 3.265.986 0 1.82-.153 2.495-.387a4.992 4.992 0 0 0 1.179-.58v-2.135a4.875 4.875 0 0 1-.481.284 6.43 6.43 0 0 1-.601.272 7.138 7.138 0 0 1-.918.292c-.474.116-.97.186-1.454.186-1.004 0-1.68-.248-2.113-.75-.383-.445-.575-1.088-.633-1.936a6.267 6.267 0 0 1-.004-.064h6.314v-1.386c0-.212-.005-.416-.015-.614-.174-3.391-1.823-4.688-4.297-4.688-2.338 0-3.778 1.311-4.38 3.328-.22.735-.328 1.565-.328 2.458 0 .934.111 1.752.328 2.455zm2.91-5.489c-.316.44-.49 1.089-.53 1.936a6.437 6.437 0 0 0-.002.064h3.652v-.22c0-.708-.103-1.335-.377-1.78-.263-.426-.682-.684-1.317-.684-.628 0-1.102.232-1.426.684zM64.85 31l2.222-3.74L69.426 31h2.948l-3.608-5.698 3.124-5.368h-2.618l-1.892 3.344-2.112-3.344H62.32l3.344 5.302L62.188 31h2.662z" fill="#fff" fill-opacity=".8"/><path d="M15.746 31v-2.596c0-1.958-.242-2.53-.99-4.158L10.84 15.71H8.068l5.016 10.912V31h2.662zm1.738-7.898l3.256-7.392h-2.706l-3.256 7.392h2.706zm27.808 8.118c1.232 0 2.244-.572 2.948-1.65l.132 1.43h2.42V15.71h-2.618v5.522c-.66-.99-1.628-1.518-2.772-1.518-2.53 0-4.29 2.134-4.29 5.83 0 3.652 1.716 5.676 4.18 5.676zm16.082-.968v-2.134c-.814.55-2.178 1.034-3.454 1.034-1.914 0-2.64-.902-2.75-2.75h6.314v-1.386c0-3.85-1.694-5.302-4.312-5.302-3.19 0-4.708 2.442-4.708 5.786 0 3.85 1.892 5.72 5.236 5.72 1.672 0 2.904-.44 3.674-.968zM28.44 23.454c0-2.684-1.364-3.696-4.136-3.696-1.716 0-3.102.726-3.894 1.298v2.266c.836-.682 2.112-1.474 3.586-1.474 1.254 0 1.826.44 1.826 1.628v.704h-.418c-4.004 0-5.786 1.298-5.786 3.608 0 2.134 1.364 3.366 3.388 3.366 1.54 0 2.2-.506 2.706-1.034h.11c.022.286.11.66.198.88h2.552a27.852 27.852 0 0 1-.132-2.706v-4.84zm4.752-.396c.484-.594 1.254-1.1 2.2-1.1.924 0 1.342.396 1.342 1.232V31h2.618v-8.074c0-2.2-.88-3.168-3.014-3.168-1.562 0-2.486.572-3.014 1.1h-.132l-.066-.924h-2.552V31h2.618v-7.942zM69.426 31h2.948l-3.608-5.698 3.124-5.368h-2.618l-1.892 3.344-2.112-3.344H62.32l3.344 5.302L62.188 31h2.662l2.222-3.74L69.426 31zm-23.364-9.218c1.408 0 2.112 1.122 2.112 3.674 0 2.574-.748 3.696-2.222 3.696-1.43 0-2.134-1.1-2.134-3.608 0-2.618.748-3.762 2.244-3.762zm11.066 0c1.298 0 1.694 1.078 1.694 2.464v.22H55.17c.066-1.76.704-2.684 1.958-2.684zM25.822 28.36c-.33.484-.946.88-1.87.88-1.1 0-1.65-.638-1.65-1.606 0-1.276.902-1.716 3.146-1.716h.374v2.442z" fill="#000"/><path d="M15.746 28.404V31h-2.662v-4.378L8.068 15.71h2.772l3.916 8.536c.748 1.628.99 2.2.99 4.158z" fill="#FC3F1D"/><path d="M20.74 15.71l-3.256 7.392h-2.706l3.256-7.392h2.706z" fill="#FC3F1D"/></svg>